<svg width="460" height="173" viewBox="0 0 460 173" fill="none" xmlns="http://www.w3.org/2000/svg">
<g filter="url(#filter0_d_4_62)">
<path d="M49.3309 -5.53131e-05L79.9549 29.1839L80.5309 34.9919L49.9069 5.85594L49.3309 -5.53131e-05ZM49.5709 30.9119V34.3199H45.5869V33.8399C45.5869 33.8399 45.7309 33.8399 46.0189 33.8399C46.3069 33.8399 46.4669 33.8399 46.4989 33.8399C47.2989 33.8399 47.9869 33.5519 48.5629 32.9759C49.1389 32.3999 49.4269 31.7119 49.4269 30.9119H49.5709ZM56.2909 30.9119C56.2909 31.7119 56.5789 32.3999 57.1549 32.9759C57.7309 33.5519 58.4189 33.8399 59.2189 33.8399C59.2509 33.8399 59.4109 33.8399 59.6989 33.8399C59.9869 33.8399 60.1309 33.8399 60.1309 33.8399V34.3199H56.1469V30.9119H56.2909ZM49.3309 -5.53131e-05L56.2429 7.34394L56.2909 34.3199H49.4269V5.99994C49.4269 4.20794 49.3309 2.76795 49.1389 1.67995C48.9469 0.559945 48.8509 -5.53131e-05 48.8509 -5.53131e-05H49.3309ZM80.3869 0.719944V28.8479C80.3869 30.0319 80.4349 31.1039 80.5309 32.0639C80.6269 32.9919 80.7229 33.7119 80.8189 34.2239C80.9149 34.7359 80.9629 34.9919 80.9629 34.9919H80.5309L73.5709 27.2159V0.719944H80.3869ZM84.2269 0.719944V1.19994C84.2269 1.19994 84.0829 1.19994 83.7949 1.19994C83.5069 1.19994 83.3629 1.19994 83.3629 1.19994C82.5629 1.19994 81.8749 1.48794 81.2989 2.06394C80.7229 2.60794 80.4189 3.29595 80.3869 4.12795H80.2429V0.719944H84.2269ZM69.6829 0.719944H73.6669V4.12795H73.5709C73.5389 3.29595 73.2349 2.60794 72.6589 2.06394C72.1149 1.48794 71.4269 1.19994 70.5949 1.19994C70.5949 1.19994 70.4509 1.19994 70.1629 1.19994C69.8749 1.19994 69.7149 1.19994 69.6829 1.19994V0.719944ZM100.146 4.22394L114.354 34.0799H106.242L97.3144 13.0079L100.146 4.22394ZM91.1224 31.1519C90.7704 32.0159 90.8184 32.6879 91.2664 33.1679C91.7144 33.6159 92.2104 33.8399 92.7544 33.8399H93.1384V34.3199H83.5384V33.8399C83.5384 33.8399 83.6024 33.8399 83.7304 33.8399C83.8584 33.8399 83.9224 33.8399 83.9224 33.8399C84.5624 33.8399 85.2344 33.6479 85.9384 33.2639C86.6424 32.8479 87.2184 32.1439 87.6664 31.1519H91.1224ZM100.146 4.22394L100.242 9.98394L89.8264 34.1759H86.2744L97.5064 10.0319C97.5704 9.83994 97.7144 9.50395 97.9384 9.02395C98.1624 8.51194 98.4024 7.95194 98.6584 7.34394C98.9144 6.70395 99.1544 6.11195 99.3784 5.56794C99.6024 4.99194 99.7304 4.54394 99.7624 4.22394H100.146ZM104.322 24.9119V26.7839H92.0824V24.9119H104.322ZM105.042 31.1519H112.962C113.442 32.1439 114.034 32.8479 114.738 33.2639C115.442 33.6479 116.114 33.8399 116.754 33.8399C116.754 33.8399 116.818 33.8399 116.946 33.8399C117.074 33.8399 117.138 33.8399 117.138 33.8399V34.3199H103.026V33.8399H103.41C103.954 33.8399 104.45 33.6159 104.898 33.1679C105.346 32.6879 105.394 32.0159 105.042 31.1519ZM132.782 4.89594C134.254 4.89594 135.726 4.99194 137.198 5.18394C138.702 5.34394 140.094 5.59994 141.374 5.95195C142.686 6.27194 143.79 6.65594 144.686 7.10394V14.7359H144.302C143.79 12.6879 143.022 11.0879 141.998 9.93595C141.006 8.78395 139.854 7.96795 138.542 7.48795C137.23 7.00795 135.806 6.76795 134.27 6.76795C132.03 6.76795 130.142 7.29595 128.606 8.35195C127.07 9.40795 125.902 10.9439 125.102 12.9599C124.334 14.9439 123.95 17.3439 123.95 20.1599C123.95 22.8159 124.302 25.1039 125.006 27.0239C125.71 28.9439 126.75 30.4319 128.126 31.4879C129.502 32.5439 131.166 33.0719 133.118 33.0719C134.142 33.0719 135.118 32.9119 136.046 32.5919C136.974 32.2399 137.79 31.7439 138.494 31.1039C139.198 30.4319 139.694 29.6159 139.982 28.6559L140.03 22.8959C140.03 22.2559 139.838 21.7759 139.454 21.4559C139.102 21.1359 138.59 20.9759 137.918 20.9759H137.246V20.5439H149.582V20.9759H148.958C147.55 20.9759 146.862 21.6159 146.894 22.8959V29.2799C146.222 30.1759 145.182 31.0559 143.774 31.9199C142.366 32.7839 140.702 33.5039 138.782 34.0799C136.862 34.6559 134.766 34.9439 132.494 34.9439C129.294 34.9119 126.51 34.3039 124.142 33.1199C121.774 31.9039 119.934 30.1759 118.622 27.9359C117.31 25.6959 116.654 23.0079 116.654 19.8719C116.654 16.7359 117.31 14.0639 118.622 11.8559C119.934 9.61594 121.79 7.90394 124.19 6.71994C126.59 5.50394 129.454 4.89594 132.782 4.89594ZM160.473 5.51995H165.081C167.673 5.51995 169.769 5.87195 171.369 6.57595C172.969 7.27994 174.169 8.23994 174.969 9.45595C175.769 10.6399 176.201 11.9839 176.265 13.4879C176.329 15.3759 175.945 17.0239 175.113 18.4319C174.313 19.8399 173.225 20.9119 171.849 21.6479C170.473 22.3839 168.969 22.7199 167.337 22.6559C165.705 22.5599 164.089 21.9839 162.489 20.9279V20.4959C162.489 20.4959 162.649 20.4959 162.969 20.4959C163.321 20.4959 163.753 20.4479 164.265 20.3519C164.777 20.2239 165.305 19.9999 165.849 19.6799C166.425 19.3599 166.969 18.8799 167.481 18.2399C167.993 17.5999 168.393 16.7359 168.681 15.6479C168.777 15.2639 168.841 14.8479 168.873 14.3999C168.937 13.9199 168.953 13.5039 168.921 13.1519C168.889 11.3919 168.361 9.99995 167.337 8.97595C166.345 7.91994 164.953 7.39194 163.161 7.39194H160.905C160.905 7.39194 160.873 7.24794 160.809 6.95994C160.745 6.63994 160.665 6.31994 160.569 5.99994C160.505 5.67994 160.473 5.51995 160.473 5.51995ZM161.001 5.51995V34.3199H154.089V5.51995H161.001ZM154.185 31.2959L154.377 34.3199H150.921V33.8399C150.953 33.8399 151.049 33.8399 151.209 33.8399C151.369 33.8399 151.465 33.8399 151.497 33.8399C152.201 33.8399 152.793 33.5999 153.273 33.1199C153.785 32.6079 154.057 31.9999 154.089 31.2959H154.185ZM154.185 8.49594H154.089C154.057 7.75994 153.785 7.16794 153.273 6.71994C152.793 6.23994 152.201 5.99994 151.497 5.99994C151.433 5.99994 151.321 5.99994 151.161 5.99994C151.033 5.99994 150.937 5.99994 150.873 5.99994V5.51995H154.377L154.185 8.49594ZM160.905 31.2959H161.001C161.033 31.9999 161.289 32.6079 161.769 33.1199C162.249 33.5999 162.857 33.8399 163.593 33.8399C163.657 33.8399 163.753 33.8399 163.881 33.8399C164.041 33.8399 164.137 33.8399 164.169 33.8399V34.3199H160.665L160.905 31.2959ZM188.454 5.51995V23.6159C188.454 26.5599 189.126 28.8639 190.47 30.5279C191.846 32.1919 193.75 33.0239 196.182 33.0239C198.71 33.0239 200.662 32.2399 202.038 30.6719C203.446 29.1039 204.166 26.9279 204.198 24.1439V5.51995H207.366V23.8559C207.366 27.2799 206.31 29.9839 204.198 31.9679C202.118 33.9519 199.158 34.9439 195.318 34.9439C190.678 34.9439 187.222 33.9679 184.95 32.0159C182.678 30.0319 181.542 27.3279 181.542 23.9039V5.51995H188.454ZM181.638 5.51995V8.01594H181.542C181.51 7.40794 181.286 6.91194 180.87 6.52794C180.454 6.14394 179.942 5.95195 179.334 5.95195C179.334 5.95195 179.222 5.95195 178.998 5.95195C178.774 5.95195 178.662 5.95195 178.662 5.95195V5.51995H181.638ZM191.286 5.51995V5.95195C191.286 5.95195 191.174 5.95195 190.95 5.95195C190.726 5.95195 190.614 5.95195 190.614 5.95195C190.006 5.95195 189.494 6.14394 189.078 6.52794C188.662 6.91194 188.454 7.40794 188.454 8.01594H188.358V5.51995H191.286ZM204.294 5.51995V8.01594H204.198C204.166 7.40794 203.942 6.91194 203.526 6.52794C203.11 6.14394 202.614 5.95195 202.038 5.95195C202.038 5.95195 201.926 5.95195 201.702 5.95195C201.478 5.95195 201.366 5.95195 201.366 5.95195V5.51995H204.294ZM210.198 5.51995V5.95195C210.198 5.95195 210.086 5.95195 209.862 5.95195C209.67 5.95195 209.574 5.95195 209.574 5.95195C208.966 5.95195 208.438 6.14394 207.99 6.52794C207.574 6.91194 207.366 7.40794 207.366 8.01594H207.27V5.51995H210.198ZM222.777 5.51995H227.961C229.273 5.51995 230.553 5.66395 231.801 5.95195C233.049 6.20795 234.169 6.63995 235.161 7.24795C236.153 7.82395 236.937 8.62395 237.513 9.64795C238.121 10.6399 238.425 11.8879 238.425 13.3919C238.425 14.5119 238.185 15.6319 237.705 16.7519C237.257 17.8399 236.537 18.7839 235.545 19.5839C234.585 20.3839 233.321 20.9119 231.753 21.1679C232.681 21.4559 233.561 22.0159 234.393 22.8479C235.257 23.6799 235.929 24.4639 236.409 25.1999C236.537 25.4559 236.761 25.8719 237.081 26.4479C237.401 26.9919 237.801 27.6319 238.281 28.3679C238.793 29.0719 239.321 29.8079 239.865 30.5759C240.505 31.4399 241.065 32.1119 241.545 32.5919C242.025 33.0399 242.521 33.3599 243.033 33.5519C243.545 33.7439 244.137 33.8399 244.809 33.8399V34.3199H240.777C239.049 34.3199 237.577 34.1919 236.361 33.9359C235.177 33.6799 234.137 33.2159 233.241 32.5439C232.377 31.8399 231.577 30.8959 230.841 29.7119C230.553 29.2959 230.249 28.7999 229.929 28.2239C229.609 27.6159 229.289 27.0079 228.969 26.3999C228.649 25.7919 228.361 25.1999 228.105 24.6239C227.881 24.0479 227.721 23.5679 227.625 23.1839C227.209 22.1599 226.729 21.4239 226.185 20.9759C225.673 20.4959 225.193 20.2559 224.745 20.2559V19.8239C224.745 19.8239 224.857 19.8239 225.081 19.8239C225.305 19.8239 225.593 19.8239 225.945 19.8239C226.617 19.8239 227.273 19.7119 227.913 19.4879C228.585 19.2319 229.193 18.7679 229.737 18.0959C230.281 17.3919 230.681 16.3679 230.937 15.0239C231.001 14.8319 231.049 14.5599 231.081 14.2079C231.145 13.8559 231.161 13.4559 231.129 13.0079C231.065 11.8239 230.841 10.8799 230.457 10.1759C230.105 9.43995 229.657 8.89595 229.113 8.54395C228.569 8.15995 228.009 7.90394 227.433 7.77594C226.889 7.61594 226.409 7.53594 225.993 7.53594C225.385 7.50395 224.825 7.50395 224.313 7.53594C223.833 7.53594 223.465 7.51995 223.209 7.48795C223.177 7.48795 223.129 7.32795 223.065 7.00795C223.001 6.65594 222.937 6.31994 222.873 5.99994C222.809 5.67994 222.777 5.51995 222.777 5.51995ZM223.257 5.51995V34.3199H216.297V5.51995H223.257ZM216.441 31.2959L216.633 34.3199H213.177V33.8399C213.209 33.8399 213.289 33.8399 213.417 33.8399C213.577 33.8399 213.689 33.8399 213.753 33.8399C214.457 33.8399 215.049 33.5999 215.529 33.1199C216.041 32.6079 216.313 31.9999 216.345 31.2959H216.441ZM216.441 8.49594H216.345C216.313 7.75994 216.041 7.16794 215.529 6.71994C215.049 6.23994 214.473 5.99994 213.801 5.99994C213.705 5.99994 213.577 5.99994 213.417 5.99994C213.289 5.99994 213.209 5.99994 213.177 5.99994V5.51995H216.633L216.441 8.49594ZM223.161 31.2959H223.257C223.257 32.0959 223.529 32.7199 224.073 33.1679C224.649 33.6159 225.257 33.8399 225.897 33.8399C225.897 33.8399 225.961 33.8399 226.089 33.8399C226.217 33.8399 226.313 33.8399 226.377 33.8399V34.3199H222.921L223.161 31.2959ZM245.069 0.719944L250.253 0.0479441C250.253 0.655944 250.173 1.45594 250.013 2.44794C249.853 3.43995 249.565 4.46395 249.149 5.51995C248.733 6.54395 248.157 7.50395 247.421 8.39995C246.685 9.26395 245.741 9.90395 244.589 10.3199L243.917 10.0799C244.397 8.67195 244.733 7.48794 244.925 6.52794C245.117 5.56794 245.213 4.65594 245.213 3.79194C245.245 2.89594 245.197 1.87194 245.069 0.719944ZM262.243 4.89594C262.883 4.89594 263.651 4.92795 264.547 4.99195C265.475 5.05595 266.387 5.13595 267.283 5.23195C268.179 5.29595 268.963 5.39194 269.635 5.51995C270.339 5.61595 270.819 5.71195 271.075 5.80794L270.451 11.6639H270.019C270.019 10.1919 269.507 9.02395 268.483 8.15995C267.459 7.29595 265.987 6.86395 264.067 6.86395C262.531 6.86395 261.283 7.19995 260.323 7.87195C259.395 8.54395 258.899 9.43994 258.835 10.5599C258.771 11.1359 258.867 11.6639 259.123 12.1439C259.411 12.5919 259.795 12.9919 260.275 13.3439C260.787 13.6959 261.347 14.0479 261.955 14.3999L269.491 19.0559C270.771 19.6959 271.779 20.6239 272.515 21.8399C273.251 23.0559 273.571 24.5279 273.475 26.2559C273.379 28.0479 272.851 29.5999 271.891 30.9119C270.963 32.2239 269.667 33.2319 268.003 33.9359C266.371 34.6079 264.435 34.9439 262.195 34.9439C260.819 34.9439 259.539 34.8319 258.355 34.6079C257.171 34.3839 256.147 34.0799 255.283 33.6959C254.451 33.3119 253.811 32.8799 253.363 32.3999C253.107 31.7599 252.995 30.9919 253.027 30.0959C253.059 29.1679 253.203 28.2559 253.459 27.3599C253.715 26.4319 254.035 25.6639 254.419 25.0559H254.803C254.707 26.4959 254.963 27.8239 255.571 29.0399C256.211 30.2559 257.139 31.2319 258.355 31.9679C259.571 32.6719 261.027 33.0239 262.723 33.0239C264.579 33.0239 265.971 32.5919 266.899 31.7279C267.827 30.8639 268.291 29.8559 268.291 28.7039C268.291 27.8399 268.003 27.0719 267.427 26.3999C266.883 25.6959 265.971 25.0079 264.691 24.3359L257.875 20.0159C256.275 19.1839 255.107 18.0799 254.371 16.7039C253.667 15.3279 253.411 13.8239 253.603 12.1919C253.763 10.6559 254.211 9.34395 254.947 8.25594C255.715 7.16794 256.723 6.33595 257.971 5.75994C259.219 5.18394 260.643 4.89594 262.243 4.89594ZM271.075 5.32794L271.027 6.19195H265.891V5.32794H271.075ZM299.282 5.51995V34.3199H292.37V5.51995H299.282ZM308.93 19.1039V21.0239H299.186V19.1039H308.93ZM311.138 5.51995V7.43995H299.186V5.51995H311.138ZM308.93 20.9279V25.1519H308.45V24.7679C308.45 23.7119 308.114 22.8319 307.442 22.1279C306.802 21.4239 305.906 21.0559 304.754 21.0239V20.9279H308.93ZM308.93 14.9759V19.1999H304.754V19.1039C305.906 19.0719 306.802 18.7039 307.442 17.9999C308.114 17.2639 308.45 16.3679 308.45 15.3119V14.9759H308.93ZM311.138 7.29595V12.4799H310.61V11.9999C310.61 10.6239 310.226 9.53594 309.458 8.73594C308.722 7.90394 307.634 7.47195 306.194 7.43995V7.29595H311.138ZM311.138 4.79995V5.95195L306.05 5.51995C306.658 5.51995 307.298 5.48794 307.97 5.42394C308.674 5.32794 309.314 5.23195 309.89 5.13594C310.466 5.00794 310.882 4.89594 311.138 4.79995ZM292.514 31.2959L292.706 34.3199H289.154V33.8399C289.154 33.8399 289.25 33.8399 289.442 33.8399C289.634 33.8399 289.746 33.8399 289.778 33.8399C290.482 33.8399 291.09 33.5999 291.602 33.1199C292.114 32.6079 292.37 31.9999 292.37 31.2959H292.514ZM292.514 8.54395H292.37C292.37 7.80795 292.114 7.19995 291.602 6.71994C291.09 6.23994 290.482 5.99994 289.778 5.99994C289.746 5.99994 289.634 5.99994 289.442 5.99994C289.25 5.99994 289.154 5.99994 289.154 5.99994V5.51995H292.706L292.514 8.54395ZM299.186 31.2959H299.282C299.314 31.9999 299.57 32.6079 300.05 33.1199C300.562 33.5999 301.186 33.8399 301.922 33.8399C301.922 33.8399 302.018 33.8399 302.21 33.8399C302.402 33.8399 302.514 33.8399 302.546 33.8399L302.498 34.3199H298.994L299.186 31.2959ZM325.113 5.51995V34.3199H318.201V5.51995H325.113ZM318.345 31.2959V34.3199H314.841V33.8399C314.841 33.8399 314.937 33.8399 315.129 33.8399C315.321 33.8399 315.433 33.8399 315.465 33.8399C316.201 33.8399 316.841 33.5999 317.385 33.1199C317.929 32.6079 318.201 31.9999 318.201 31.2959H318.345ZM325.017 31.2959H325.113C325.145 31.9999 325.417 32.6079 325.929 33.1199C326.473 33.5999 327.129 33.8399 327.897 33.8399C327.897 33.8399 327.977 33.8399 328.137 33.8399C328.329 33.8399 328.441 33.8399 328.473 33.8399V34.3199H325.017V31.2959ZM325.017 8.54395V5.51995H328.473L328.425 5.99994C328.425 5.99994 328.345 5.99994 328.185 5.99994C328.025 5.99994 327.929 5.99994 327.897 5.99994C327.129 5.99994 326.473 6.23994 325.929 6.71994C325.417 7.19995 325.145 7.80795 325.113 8.54395H325.017ZM318.345 8.54395H318.201C318.201 7.80795 317.929 7.19995 317.385 6.71994C316.841 6.23994 316.185 5.99994 315.417 5.99994C315.417 5.99994 315.321 5.99994 315.129 5.99994C314.937 5.99994 314.841 5.99994 314.841 5.99994V5.51995H318.345V8.54395ZM341.371 5.51995H346.555C347.867 5.51995 349.147 5.66395 350.395 5.95195C351.643 6.20795 352.763 6.63995 353.755 7.24795C354.747 7.82395 355.531 8.62395 356.107 9.64795C356.715 10.6399 357.019 11.8879 357.019 13.3919C357.019 14.5119 356.779 15.6319 356.299 16.7519C355.851 17.8399 355.131 18.7839 354.139 19.5839C353.179 20.3839 351.915 20.9119 350.347 21.1679C351.275 21.4559 352.155 22.0159 352.987 22.8479C353.851 23.6799 354.523 24.4639 355.003 25.1999C355.131 25.4559 355.355 25.8719 355.675 26.4479C355.995 26.9919 356.395 27.6319 356.875 28.3679C357.387 29.0719 357.915 29.8079 358.459 30.5759C359.099 31.4399 359.659 32.1119 360.139 32.5919C360.619 33.0399 361.115 33.3599 361.627 33.5519C362.139 33.7439 362.731 33.8399 363.403 33.8399V34.3199H359.371C357.643 34.3199 356.171 34.1919 354.955 33.9359C353.771 33.6799 352.731 33.2159 351.835 32.5439C350.971 31.8399 350.171 30.8959 349.435 29.7119C349.147 29.2959 348.843 28.7999 348.523 28.2239C348.203 27.6159 347.883 27.0079 347.563 26.3999C347.243 25.7919 346.955 25.1999 346.699 24.6239C346.475 24.0479 346.315 23.5679 346.219 23.1839C345.803 22.1599 345.323 21.4239 344.779 20.9759C344.267 20.4959 343.787 20.2559 343.339 20.2559V19.8239C343.339 19.8239 343.451 19.8239 343.675 19.8239C343.899 19.8239 344.187 19.8239 344.539 19.8239C345.211 19.8239 345.867 19.7119 346.507 19.4879C347.179 19.2319 347.787 18.7679 348.331 18.0959C348.875 17.3919 349.275 16.3679 349.531 15.0239C349.595 14.8319 349.643 14.5599 349.675 14.2079C349.739 13.8559 349.755 13.4559 349.723 13.0079C349.659 11.8239 349.435 10.8799 349.051 10.1759C348.699 9.43995 348.251 8.89595 347.707 8.54395C347.163 8.15995 346.603 7.90394 346.027 7.77594C345.483 7.61594 345.003 7.53594 344.587 7.53594C343.979 7.50395 343.419 7.50395 342.907 7.53594C342.427 7.53594 342.059 7.51995 341.803 7.48795C341.771 7.48795 341.723 7.32795 341.659 7.00795C341.595 6.65594 341.531 6.31994 341.467 5.99994C341.403 5.67994 341.371 5.51995 341.371 5.51995ZM341.851 5.51995V34.3199H334.891V5.51995H341.851ZM335.035 31.2959L335.227 34.3199H331.771V33.8399C331.803 33.8399 331.883 33.8399 332.011 33.8399C332.171 33.8399 332.283 33.8399 332.347 33.8399C333.051 33.8399 333.643 33.5999 334.123 33.1199C334.635 32.6079 334.907 31.9999 334.939 31.2959H335.035ZM335.035 8.49594H334.939C334.907 7.75994 334.635 7.16794 334.123 6.71994C333.643 6.23994 333.067 5.99994 332.395 5.99994C332.299 5.99994 332.171 5.99994 332.011 5.99994C331.883 5.99994 331.803 5.99994 331.771 5.99994V5.51995H335.227L335.035 8.49594ZM341.755 31.2959H341.851C341.851 32.0959 342.123 32.7199 342.667 33.1679C343.243 33.6159 343.851 33.8399 344.491 33.8399C344.491 33.8399 344.555 33.8399 344.683 33.8399C344.811 33.8399 344.907 33.8399 344.971 33.8399V34.3199H341.515L341.755 31.2959ZM373.102 4.89594C373.742 4.89594 374.51 4.92795 375.406 4.99195C376.334 5.05595 377.246 5.13595 378.142 5.23195C379.038 5.29595 379.822 5.39194 380.494 5.51995C381.198 5.61595 381.678 5.71195 381.934 5.80794L381.31 11.6639H380.878C380.878 10.1919 380.366 9.02395 379.342 8.15995C378.318 7.29595 376.846 6.86395 374.926 6.86395C373.39 6.86395 372.142 7.19995 371.182 7.87195C370.254 8.54395 369.758 9.43994 369.694 10.5599C369.63 11.1359 369.726 11.6639 369.982 12.1439C370.27 12.5919 370.654 12.9919 371.134 13.3439C371.646 13.6959 372.206 14.0479 372.814 14.3999L380.35 19.0559C381.63 19.6959 382.638 20.6239 383.374 21.8399C384.11 23.0559 384.43 24.5279 384.334 26.2559C384.238 28.0479 383.71 29.5999 382.75 30.9119C381.822 32.2239 380.526 33.2319 378.862 33.9359C377.23 34.6079 375.294 34.9439 373.054 34.9439C371.678 34.9439 370.398 34.8319 369.214 34.6079C368.03 34.3839 367.006 34.0799 366.142 33.6959C365.31 33.3119 364.67 32.8799 364.222 32.3999C363.966 31.7599 363.854 30.9919 363.886 30.0959C363.918 29.1679 364.062 28.2559 364.318 27.3599C364.574 26.4319 364.894 25.6639 365.278 25.0559H365.662C365.566 26.4959 365.822 27.8239 366.43 29.0399C367.07 30.2559 367.998 31.2319 369.214 31.9679C370.43 32.6719 371.886 33.0239 373.582 33.0239C375.438 33.0239 376.83 32.5919 377.758 31.7279C378.686 30.8639 379.15 29.8559 379.15 28.7039C379.15 27.8399 378.862 27.0719 378.286 26.3999C377.742 25.6959 376.83 25.0079 375.55 24.3359L368.734 20.0159C367.134 19.1839 365.966 18.0799 365.23 16.7039C364.526 15.3279 364.27 13.8239 364.462 12.1919C364.622 10.6559 365.07 9.34395 365.806 8.25594C366.574 7.16794 367.582 6.33595 368.83 5.75994C370.078 5.18394 371.502 4.89594 373.102 4.89594ZM381.934 5.32794L381.886 6.19195H376.75V5.32794H381.934ZM403.675 5.66395V34.3199H396.715V5.66395H403.675ZM414.139 5.47195V7.39194H386.299V5.47195H414.139ZM414.139 7.24795V12.3359H413.611V11.9039C413.643 10.5279 413.259 9.43994 412.459 8.63995C411.691 7.83995 410.619 7.42395 409.243 7.39194V7.24795H414.139ZM414.139 4.75194V5.95195L409.051 5.47195C409.659 5.47195 410.315 5.43995 411.019 5.37594C411.723 5.27995 412.363 5.18395 412.939 5.08794C413.515 4.95994 413.915 4.84794 414.139 4.75194ZM396.811 31.2959V34.3199H393.595V33.8399C393.595 33.8399 393.675 33.8399 393.835 33.8399C394.027 33.8399 394.123 33.8399 394.123 33.8399C394.827 33.8399 395.419 33.5999 395.899 33.1199C396.411 32.6079 396.683 31.9999 396.715 31.2959H396.811ZM403.531 31.2959H403.675C403.675 31.9999 403.931 32.6079 404.443 33.1199C404.955 33.5999 405.579 33.8399 406.315 33.8399C406.315 33.8399 406.395 33.8399 406.555 33.8399C406.747 33.8399 406.843 33.8399 406.843 33.8399V34.3199H403.531V31.2959ZM391.195 7.24795V7.39194C389.787 7.42395 388.699 7.83995 387.931 8.63995C387.195 9.43994 386.827 10.5279 386.827 11.9039V12.3359H386.299V7.24795H391.195ZM386.299 4.75194C386.587 4.81594 387.003 4.91195 387.547 5.03995C388.123 5.16795 388.747 5.27995 389.419 5.37594C390.123 5.43995 390.763 5.47195 391.339 5.47195L386.299 5.95195V4.75194ZM12.16 103.504C9.66397 103.504 7.67997 102.912 6.20797 101.728C4.73597 100.576 3.99997 98.8959 3.99997 96.6879C3.99997 95.0879 4.33597 93.5839 5.00797 92.1759C5.71197 90.7359 6.65597 89.4559 7.83997 88.3359C9.02397 87.2159 10.368 86.3359 11.872 85.6959C13.408 85.0559 15.008 84.7359 16.672 84.7359C18.368 84.7359 19.696 85.1199 20.656 85.8879C21.648 86.6559 22.144 87.6959 22.144 89.0079C22.144 89.9679 21.52 91.2159 20.272 92.7519C19.024 94.2879 18.4 94.7999 18.4 94.2879C18.4 94.1599 18.448 94.0319 18.544 93.9039C19.568 92.3999 20.08 90.9919 20.08 89.6799C20.08 88.4959 19.696 87.5519 18.928 86.8479C18.192 86.1439 17.216 85.7919 16 85.7919C14.656 85.7919 13.36 86.1279 12.112 86.7999C10.896 87.4399 9.80797 88.3039 8.84797 89.3919C7.88797 90.4799 7.13597 91.6799 6.59197 92.9919C6.04797 94.3039 5.77597 95.5999 5.77597 96.8799C5.77597 98.6399 6.33597 99.9679 7.45597 100.864C8.60797 101.792 10.112 102.256 11.968 102.256C13.856 102.256 15.664 101.904 17.392 101.2C19.152 100.528 20.72 99.5519 22.096 98.2719C23.728 96.7359 25.376 94.4959 27.04 91.5519L31.216 84.0159C32.304 82.2879 33.44 80.2079 34.624 77.7759C35.808 75.3119 37.056 72.4959 38.368 69.3279C33.76 69.2639 29.28 69.7119 24.928 70.6719C20.288 71.6639 16.848 73.0399 14.608 74.7999C13.648 75.5039 13.168 76.2399 13.168 77.0079C13.168 77.6799 13.536 78.2399 14.272 78.6879C15.04 79.1039 16 79.3119 17.152 79.3119C17.824 79.3119 18.624 79.2159 19.552 79.0239C20.48 78.8319 21.376 78.5759 22.24 78.2559C23.104 77.9039 23.76 77.5199 24.208 77.1039C24.528 76.8479 24.752 76.7199 24.88 76.7199C25.136 76.7199 25.184 76.8479 25.024 77.1039C24.352 77.9039 23.472 78.5759 22.384 79.1199C21.328 79.6639 20.208 80.0799 19.024 80.3679C17.84 80.6239 16.736 80.7519 15.712 80.7519C14.144 80.7519 12.912 80.4479 12.016 79.8399C11.152 79.1999 10.72 78.3839 10.72 77.3919C10.72 76.2399 11.296 75.1199 12.448 74.0319C14.624 71.9199 18.512 70.3519 24.112 69.3279C26.288 68.9439 28.624 68.6719 31.12 68.5119C33.616 68.3199 36.272 68.2399 39.088 68.2719C39.792 67.6639 40.464 67.3599 41.104 67.3599C41.744 67.3599 41.984 67.6959 41.824 68.3679C43.84 68.4959 45.872 68.7519 47.92 69.1359C50 69.5199 51.888 70.0639 53.584 70.7679C55.312 71.4399 56.704 72.2879 57.76 73.3119C58.816 74.3039 59.344 75.4879 59.344 76.8639C59.344 78.3359 58.848 79.7439 57.856 81.0879C56.896 82.3999 55.648 83.5679 54.112 84.5919C52.608 85.6159 51.024 86.4319 49.36 87.0399C47.824 87.5839 46.176 88.0159 44.416 88.3359C42.688 88.6559 40.976 88.8159 39.28 88.8159C38 88.8159 36.768 88.7199 35.584 88.5279C34.432 88.3359 33.376 88.0319 32.416 87.6159C30.464 90.4639 28.832 92.7839 27.52 94.5759C26.24 96.3679 25.248 97.6159 24.544 98.3199C21.088 101.776 16.96 103.504 12.16 103.504ZM38.08 87.6639C39.264 87.6639 40.432 87.5519 41.584 87.3279C42.768 87.0719 44.032 86.7359 45.376 86.3199C46.72 85.8719 48.08 85.3119 49.456 84.6399C50.832 83.9359 52.096 83.1519 53.248 82.2879C54.4 81.3919 55.328 80.4479 56.032 79.4559C56.736 78.4319 57.088 77.4079 57.088 76.3839C57.088 75.2319 56.608 74.2399 55.648 73.4079C54.688 72.5439 53.424 71.8399 51.856 71.2959C50.288 70.7519 48.592 70.3359 46.768 70.0479C44.944 69.7279 43.184 69.5199 41.488 69.4239L39.952 74.2239C39.408 75.5999 38.64 77.1999 37.648 79.0239C36.656 80.8479 35.44 82.8959 34 85.1679L32.944 86.7999C33.168 86.9279 33.408 87.0399 33.664 87.1359C33.952 87.1999 34.256 87.2639 34.576 87.3279C35.184 87.4559 35.776 87.5519 36.352 87.6159C36.928 87.6479 37.504 87.6639 38.08 87.6639ZM62.4467 98.5599C61.0707 98.5599 60.1267 98.2079 59.6147 97.5039C59.1027 96.7679 58.8467 95.7919 58.8467 94.5759C58.8467 93.2319 59.2627 91.6319 60.0947 89.7759C60.4147 89.0399 60.7507 88.3839 61.1027 87.8079C61.4547 87.1999 61.8227 86.6399 62.2067 86.1279C62.0787 86.1599 61.9667 86.1759 61.8707 86.1759C61.7747 86.1759 61.6787 86.1759 61.5827 86.1759C60.8147 86.1759 60.1747 85.6319 59.6627 84.5439L56.1107 89.1519C54.2227 91.6159 53.0707 92.8479 52.6547 92.8479C52.4947 92.8479 52.4147 92.7839 52.4147 92.6559C52.4147 92.4959 52.4947 92.2879 52.6547 92.0319C52.7507 91.8399 52.9427 91.5839 53.2307 91.2639C54.4467 89.8559 55.5667 88.4639 56.5907 87.0879C57.6147 85.7119 58.4627 84.3679 59.1347 83.0559C59.8707 80.2719 60.7987 78.8799 61.9187 78.8799C62.6547 78.8799 63.0227 79.2159 63.0227 79.8879C63.0227 80.4959 62.6227 81.2959 61.8227 82.2879C61.0547 83.2799 60.6707 83.7919 60.6707 83.8239C60.6707 84.4959 61.1667 84.8319 62.1587 84.8319C62.7347 84.8319 63.3747 84.6239 64.0787 84.2079L65.3267 83.4399C65.3907 83.4079 65.4867 83.3919 65.6147 83.3919C65.9987 83.3919 66.3347 83.5519 66.6227 83.8719C66.9107 84.1919 67.0067 84.4799 66.9107 84.7359L63.5987 88.9119C61.5507 91.5359 60.5267 93.6479 60.5267 95.2479C60.5267 96.6879 61.2307 97.4079 62.6387 97.4079C63.5987 97.4079 64.6227 97.1199 65.7107 96.5439C66.8307 95.9679 67.9027 95.2639 68.9267 94.4319C69.9827 93.5679 70.8627 92.7359 71.5667 91.9359L72.7187 90.5919C72.7827 90.5279 72.8627 90.4479 72.9587 90.3519C73.0547 90.2559 73.1347 90.2079 73.1987 90.2079C73.4227 90.2079 73.5347 90.3199 73.5347 90.5439C73.5347 90.6079 73.5027 90.7199 73.4387 90.8799C73.3747 91.0399 73.2627 91.2159 73.1027 91.4079L71.5667 93.1359C70.8307 93.9679 69.9187 94.8159 68.8307 95.6799C67.7747 96.5119 66.6707 97.1999 65.5187 97.7439C64.3987 98.2879 63.3747 98.5599 62.4467 98.5599ZM73.9933 98.9439C72.9693 98.9439 72.0413 98.6239 71.2093 97.9839C70.3773 97.3119 69.9613 96.4319 69.9613 95.3439C69.9613 93.0719 71.3533 90.4799 74.1373 87.5679C76.9853 84.6239 79.5293 83.1519 81.7693 83.1519C82.5053 83.1519 83.0973 83.3599 83.5453 83.7759C84.0253 84.1599 84.2653 84.6399 84.2653 85.2159C84.2653 87.0079 82.8413 88.7679 79.9933 90.4959C77.4653 92.0319 75.3373 92.7999 73.6093 92.7999C73.3533 92.7999 73.1293 92.7679 72.9373 92.7039C72.4573 93.5679 72.2173 94.4799 72.2173 95.4399C72.2173 97.1039 73.0013 97.9359 74.5693 97.9359C76.1693 97.9359 78.2333 96.8639 80.7613 94.7199C82.7133 93.1519 84.3773 91.4879 85.7533 89.7279C86.0413 89.3439 86.2973 89.1519 86.5213 89.1519C86.7133 89.1519 86.8094 89.2479 86.8094 89.4399C86.8094 89.6319 86.6813 89.9039 86.4253 90.2559C85.5293 91.4399 84.5693 92.5279 83.5453 93.5199C82.5213 94.5119 81.4173 95.4239 80.2333 96.2559C77.7693 98.0479 75.6893 98.9439 73.9933 98.9439ZM74.2813 91.7439C75.4973 91.7439 77.0813 91.1359 79.0333 89.9199C79.6733 89.4719 80.2973 88.9759 80.9053 88.4319C81.5453 87.8559 82.0573 87.2799 82.4413 86.7039C82.8573 86.1279 83.0653 85.6159 83.0653 85.1679C83.0653 84.7519 82.7293 84.5439 82.0573 84.5439C81.0973 84.5439 79.7533 85.2639 78.0253 86.7039C77.1933 87.4079 76.3933 88.1759 75.6253 89.0079C74.8573 89.8399 74.2013 90.7199 73.6573 91.6479C73.8493 91.7119 74.0573 91.7439 74.2813 91.7439ZM105.149 101.152C104.797 101.152 104.445 101.152 104.093 101.152C103.741 101.152 103.389 101.136 103.037 101.104C100.509 100.976 98.4611 100.144 96.8931 98.6079C95.3251 97.0719 94.5411 94.9759 94.5411 92.3199C94.5411 90.0159 95.1971 87.4079 96.5091 84.4959C98.1731 80.8159 101.309 77.3279 105.917 74.0319C108.573 72.1439 111.405 70.6399 114.413 69.5199C117.421 68.3679 120.461 67.7919 123.533 67.7919C125.325 67.7919 126.957 68.0319 128.429 68.5119C129.933 68.9919 131.117 69.7119 131.981 70.6719C132.877 71.6319 133.325 72.8479 133.325 74.3199C133.325 74.8319 133.261 75.3759 133.133 75.9519C133.005 76.4959 132.797 77.0399 132.509 77.5839L131.981 78.5919C132.237 79.4559 132.365 80.3359 132.365 81.2319C132.365 85.2319 130.317 89.0559 126.221 92.7039C119.949 98.3359 112.925 101.152 105.149 101.152ZM104.861 100.192C111.165 100.192 117.165 97.6479 122.861 92.5599C126.957 88.9119 129.165 85.4399 129.485 82.1439C127.821 83.9679 124.941 86.1439 120.845 88.6719L120.461 88.7679C120.205 88.7679 120.621 88.3199 121.709 87.4239L124.397 85.2159C125.549 84.2559 126.541 83.3599 127.373 82.5279C128.205 81.6959 128.893 80.9439 129.437 80.2719C129.213 78.4799 128.349 76.9439 126.845 75.6639C125.565 74.5439 124.029 73.7119 122.237 73.1679C121.341 72.9439 119.869 72.7999 117.821 72.7359C116.125 72.6719 115.277 72.5919 115.277 72.4959C115.277 72.4639 115.309 72.4159 115.373 72.3519C116.877 71.8719 118.317 71.6319 119.693 71.6319C120.333 71.6319 121.037 71.6799 121.805 71.7759C122.573 71.8719 123.405 72.0319 124.301 72.2559C127.661 73.0559 130.013 74.6879 131.357 77.1519C131.677 76.3839 131.837 75.5999 131.837 74.7999C131.837 73.4879 131.453 72.3839 130.685 71.4879C129.949 70.5919 128.941 69.9199 127.661 69.4719C126.413 69.0239 125.021 68.7999 123.485 68.7999C118.653 68.7999 114.013 70.3519 109.565 73.4559C105.437 76.3359 102.173 80.0479 99.7731 84.5919C98.0131 87.8879 97.1331 90.8479 97.1331 93.4719C97.1331 97.6959 99.2611 99.9199 103.517 100.144C103.741 100.176 103.965 100.192 104.189 100.192C104.413 100.192 104.637 100.192 104.861 100.192ZM132.278 98.4159C131.958 98.4159 131.526 98.2399 130.982 97.8879C130.406 97.5359 130.118 97.1999 130.118 96.8799C130.118 96.1119 131.062 93.6479 132.95 89.4879C134.966 85.0399 136.454 82.8159 137.414 82.8159C137.798 82.8159 138.118 82.9919 138.374 83.3439C138.662 83.6959 138.806 83.9839 138.806 84.2079C138.806 84.3039 137.926 85.9039 136.166 89.0079C134.438 92.1439 133.59 94.0319 133.622 94.6719C134.454 93.6799 135.27 92.7039 136.07 91.7439C136.87 90.7839 137.67 89.8079 138.47 88.8159C141.574 85.2319 143.606 83.4399 144.566 83.4399C144.918 83.4399 145.254 83.5999 145.574 83.9199C145.926 84.2079 146.102 84.4959 146.102 84.7839C146.102 84.9759 145.702 85.5839 144.902 86.6079C143.974 87.8879 143.174 89.1039 142.502 90.2559C141.862 91.4079 141.542 92.5759 141.542 93.7599C141.542 95.7759 142.214 96.7839 143.558 96.7839C144.742 96.7839 145.734 96.4799 146.534 95.8719C147.366 95.2639 148.214 94.1599 149.078 92.5599C149.718 91.3759 150.198 90.2719 150.518 89.2479C150.87 88.1919 151.046 87.2639 151.046 86.4639C151.046 85.7599 150.982 85.1679 150.854 84.6879C150.758 84.2079 150.614 83.8079 150.422 83.4879C150.358 83.4239 150.326 83.3439 150.326 83.2479C150.326 83.0559 150.422 82.9599 150.614 82.9599C150.806 82.9599 151.014 83.0239 151.238 83.1519C151.494 83.2479 151.734 83.5359 151.958 84.0159C152.118 84.2719 152.246 84.7519 152.342 85.4559C152.47 86.1599 152.534 86.7359 152.534 87.1839C152.534 89.4879 151.558 91.8079 149.606 94.1439C147.558 96.6399 145.35 97.8879 142.982 97.8879C142.182 97.8879 141.494 97.6319 140.918 97.1199C140.374 96.5759 139.958 95.9199 139.67 95.1519C139.382 94.3519 139.238 93.5679 139.238 92.7999C139.238 91.7119 139.494 90.3359 140.006 88.6719C139.59 89.0879 139.046 89.6799 138.374 90.4479C137.734 91.1839 136.998 92.0799 136.166 93.1359C135.238 94.3199 134.438 95.3439 133.766 96.2079C133.126 97.0719 132.63 97.8079 132.278 98.4159ZM164.832 98.4159C163.968 98.4159 163.36 98.1759 163.008 97.6959C162.656 97.1839 162.48 96.5599 162.48 95.8239C162.48 93.9679 163.12 91.9839 164.4 89.8719L167.472 84.8799C165.296 86.4799 163.136 88.4799 160.992 90.8799C160.416 91.5199 159.76 92.2719 159.024 93.1359C158.32 93.9999 157.536 94.9919 156.672 96.1119C155.52 97.6159 154.832 98.3679 154.608 98.3679C154.16 98.3679 153.792 98.1759 153.504 97.7919C153.216 97.3759 153.072 97.0079 153.072 96.6879C153.072 96.4319 153.152 95.9679 153.312 95.2959C153.472 94.5919 153.664 93.9839 153.888 93.4719C154.112 92.9279 154.336 92.3999 154.56 91.8879C154.816 91.3439 155.056 90.8159 155.28 90.3039L152.4 93.3279C152.336 93.3919 152.144 93.5839 151.824 93.9039C151.504 94.2239 151.248 94.3839 151.056 94.3839C150.896 94.3839 150.816 94.2719 150.816 94.0479C150.816 93.9839 150.848 93.9039 150.912 93.8079C150.944 93.6799 151.04 93.5359 151.2 93.3759C151.68 92.8959 152.176 92.3839 152.688 91.8399C153.2 91.2959 153.728 90.6719 154.272 89.9679C154.56 89.6159 154.992 89.0879 155.568 88.3839C156.144 87.6479 156.768 86.8639 157.44 86.0319C158.144 85.1999 158.8 84.4319 159.408 83.7279C159.568 83.5039 159.744 83.3599 159.936 83.2959C160.128 83.1999 160.256 83.1519 160.32 83.1519C161.184 83.1519 161.616 83.4879 161.616 84.1599C161.616 84.3519 161.568 84.5439 161.472 84.7359C158.592 88.7039 156.864 91.7279 156.288 93.8079C160 90.0959 162.976 87.3119 165.216 85.4559C167.488 83.5679 169.104 82.6239 170.064 82.6239C170.576 82.6239 170.96 82.7039 171.216 82.8639C171.504 83.0239 171.648 83.3279 171.648 83.7759C171.648 83.9359 171.632 84.0639 171.6 84.1599C171.504 84.3839 170.848 85.2799 169.632 86.8479C168.896 87.7439 168.24 88.5599 167.664 89.2959C167.12 90.0319 166.672 90.6719 166.32 91.2159C165.744 92.1119 165.312 92.9599 165.024 93.7599C164.736 94.5279 164.592 95.1839 164.592 95.7279C164.592 95.9519 164.624 96.2239 164.688 96.5439C164.752 96.8639 164.944 97.0239 165.264 97.0239C166 97.0239 167.152 96.3839 168.72 95.1039C169.456 94.4639 170.144 93.8239 170.784 93.1839C171.424 92.5119 172.032 91.8559 172.608 91.2159C172.736 91.0879 172.944 90.8479 173.232 90.4959C173.52 90.1119 173.696 89.9199 173.76 89.9199C173.888 89.9199 173.952 90.0479 173.952 90.3039C173.952 90.4319 173.872 90.6559 173.712 90.9759C173.584 91.2639 173.44 91.4879 173.28 91.6479C172.928 92.0639 172.4 92.6399 171.696 93.3759C171.024 94.1119 170.256 94.8639 169.392 95.6319C168.56 96.3999 167.744 97.0559 166.944 97.5999C166.144 98.1439 165.44 98.4159 164.832 98.4159ZM174.4 98.9439C173.376 98.9439 172.448 98.6239 171.616 97.9839C170.784 97.3119 170.368 96.4319 170.368 95.3439C170.368 93.0719 171.76 90.4799 174.544 87.5679C177.392 84.6239 179.936 83.1519 182.176 83.1519C182.912 83.1519 183.504 83.3599 183.952 83.7759C184.432 84.1599 184.672 84.6399 184.672 85.2159C184.672 87.0079 183.248 88.7679 180.4 90.4959C177.872 92.0319 175.744 92.7999 174.016 92.7999C173.76 92.7999 173.536 92.7679 173.344 92.7039C172.864 93.5679 172.624 94.4799 172.624 95.4399C172.624 97.1039 173.408 97.9359 174.976 97.9359C176.576 97.9359 178.64 96.8639 181.168 94.7199C183.12 93.1519 184.784 91.4879 186.16 89.7279C186.448 89.3439 186.704 89.1519 186.928 89.1519C187.12 89.1519 187.216 89.2479 187.216 89.4399C187.216 89.6319 187.088 89.9039 186.832 90.2559C185.936 91.4399 184.976 92.5279 183.952 93.5199C182.928 94.5119 181.824 95.4239 180.64 96.2559C178.176 98.0479 176.096 98.9439 174.4 98.9439ZM174.688 91.7439C175.904 91.7439 177.488 91.1359 179.44 89.9199C180.08 89.4719 180.704 88.9759 181.312 88.4319C181.952 87.8559 182.464 87.2799 182.848 86.7039C183.264 86.1279 183.472 85.6159 183.472 85.1679C183.472 84.7519 183.136 84.5439 182.464 84.5439C181.504 84.5439 180.16 85.2639 178.432 86.7039C177.6 87.4079 176.8 88.1759 176.032 89.0079C175.264 89.8399 174.608 90.7199 174.064 91.6479C174.256 91.7119 174.464 91.7439 174.688 91.7439ZM187.496 98.5599C186.536 98.5599 185.72 98.3039 185.048 97.7919C184.376 97.2479 183.992 96.5919 183.896 95.8239C183.768 94.7999 183.912 93.7759 184.328 92.7519C184.776 91.6959 185.368 90.6879 186.104 89.7279C186.872 88.7679 187.688 87.8719 188.552 87.0399C191.944 83.6479 195 81.9519 197.72 81.9519C198.648 81.9519 199.272 82.1919 199.592 82.6719C199.72 82.8319 199.864 83.1999 200.024 83.7759C203.608 77.9519 206.104 75.0399 207.512 75.0399C207.832 75.0399 208.168 75.1199 208.52 75.2799C208.872 75.4399 209.048 75.6479 209.048 75.9039C209.048 76.0639 208.968 76.2719 208.808 76.5279C207.848 77.7119 206.888 78.8959 205.928 80.0799C204.968 81.2319 204.024 82.3999 203.096 83.5839C201.528 85.5679 200.264 87.2959 199.304 88.7679C198.344 90.2399 197.656 91.4879 197.24 92.5119C197.112 92.8319 196.984 93.2319 196.856 93.7119C196.76 94.1599 196.712 94.6239 196.712 95.1039C196.712 95.7119 196.84 96.2399 197.096 96.6879C197.352 97.1359 197.816 97.3599 198.488 97.3599C199.544 97.3599 200.84 96.8479 202.376 95.8239C203.912 94.7999 205.704 93.1199 207.752 90.7839C207.88 90.6559 207.992 90.5439 208.088 90.4479C208.216 90.3519 208.344 90.2879 208.472 90.2559C208.76 90.1919 208.904 90.2559 208.904 90.4479C208.904 90.5439 208.808 90.7199 208.616 90.9759C207.624 92.1599 206.52 93.3279 205.304 94.4799C204.088 95.6319 202.84 96.5919 201.56 97.3599C200.312 98.0959 199.144 98.4639 198.056 98.4639C196.968 98.4639 196.2 98.0959 195.752 97.3599C195.304 96.6239 195.08 95.7919 195.08 94.8639C195.08 93.9039 195.256 93.0239 195.608 92.2239L191.72 96.1119C190.856 96.9759 190.056 97.5999 189.32 97.9839C188.616 98.3679 188.008 98.5599 187.496 98.5599ZM187.064 97.5039C188.44 97.5039 190.728 95.6159 193.928 91.8399C194.088 91.6479 194.648 90.9439 195.608 89.7279C196.568 88.4799 197.928 86.6719 199.688 84.3039C199.464 83.9199 199.08 83.7279 198.536 83.7279C196.552 83.7279 193.896 85.2959 190.568 88.4319C187.432 91.3439 185.864 93.7919 185.864 95.7759C185.864 96.9279 186.264 97.5039 187.064 97.5039ZM242.362 103.552C240.57 103.552 238.73 103.28 236.842 102.736C234.954 102.224 233.162 101.456 231.466 100.432C229.802 99.4079 228.362 98.1919 227.146 96.7839C224.586 99.3439 222.154 100.624 219.85 100.624C218.666 100.624 217.786 100.272 217.21 99.5679C216.634 98.8959 216.346 98.0159 216.346 96.9279C216.346 94.9119 217.114 92.5439 218.65 89.8239C220.09 87.2639 221.242 85.9199 222.106 85.7919C222.746 85.7919 223.402 86.4479 224.074 87.7599L227.098 93.6159C228.794 91.3439 230.57 88.8959 232.426 86.2719C229.802 85.0879 228.49 83.3759 228.49 81.1359C228.49 80.1759 228.714 79.2959 229.162 78.4959C229.642 77.6639 230.25 76.9919 230.986 76.4799C231.722 75.9679 232.474 75.7119 233.242 75.7119C234.298 75.7119 235.066 76.2079 235.546 77.1999C235.61 77.2959 235.61 77.3919 235.546 77.4879C235.514 77.5839 235.466 77.6159 235.402 77.5839C235.178 77.3279 234.858 77.1039 234.442 76.9119C234.026 76.7199 233.642 76.6239 233.29 76.6239C232.618 76.6239 231.994 76.8959 231.418 77.4399C230.874 77.9519 230.442 78.5599 230.122 79.2639C229.834 79.9679 229.722 80.5919 229.786 81.1359C229.786 82.7679 230.938 84.1919 233.242 85.4079C233.786 84.6079 234.378 83.7439 235.018 82.8159C235.658 81.8559 236.346 80.8319 237.082 79.7439C243.45 70.3999 248.746 65.7279 252.97 65.7279C255.946 65.7279 257.434 67.1199 257.434 69.9039C257.434 72.4319 256.202 75.4079 253.738 78.8319C252.522 80.5279 250.986 82.0479 249.13 83.3919C247.274 84.7359 245.306 85.8079 243.226 86.6079C241.178 87.3759 239.194 87.7599 237.274 87.7599C236.826 87.7599 236.378 87.7439 235.93 87.7119C235.514 87.6479 235.13 87.5519 234.778 87.4239C233.946 88.5119 232.986 89.7279 231.898 91.0719C230.81 92.4159 229.61 93.9039 228.298 95.5359C228.874 96.3359 229.69 97.1359 230.746 97.9359C231.834 98.7359 233.05 99.4399 234.394 100.048C235.738 100.688 237.066 101.2 238.378 101.584C239.69 101.968 240.874 102.16 241.93 102.16C243.146 102.16 244.266 102.016 245.29 101.728C246.314 101.472 247.146 101.04 247.786 100.432C248.426 99.8559 248.746 99.0879 248.746 98.1279C248.746 97.9999 248.746 97.8719 248.746 97.7439C248.746 97.6159 248.73 97.4879 248.698 97.3599C248.698 97.2959 248.682 97.2479 248.65 97.2159C248.65 97.1839 248.65 97.1519 248.65 97.1199C248.65 96.7999 248.746 96.6399 248.938 96.6399C249.258 96.6399 249.514 96.8959 249.706 97.4079C249.898 97.8879 249.994 98.2719 249.994 98.5599C249.994 99.5519 249.61 100.416 248.842 101.152C248.074 101.92 247.098 102.512 245.914 102.928C244.762 103.344 243.578 103.552 242.362 103.552ZM236.938 86.5119C238.57 86.5119 240.314 86.1439 242.17 85.4079C244.026 84.6399 245.77 83.6479 247.402 82.4319C249.066 81.1839 250.41 79.8399 251.434 78.3999C254.346 74.3359 255.802 71.2479 255.802 69.1359C255.802 68.2399 255.546 67.5839 255.034 67.1679C254.522 66.7519 253.898 66.5439 253.162 66.5439C251.562 66.5439 249.578 67.8879 247.21 70.5759C246.474 71.4399 245.498 72.6879 244.282 74.3199C243.098 75.9199 241.69 77.9039 240.058 80.2719C239.418 81.1999 238.714 82.1759 237.946 83.1999C237.178 84.2239 236.378 85.2799 235.546 86.3679C235.994 86.4639 236.458 86.5119 236.938 86.5119ZM219.946 99.3279C220.554 99.3279 221.226 99.1039 221.962 98.6559C222.73 98.2399 223.466 97.7119 224.17 97.0719C224.874 96.4319 225.45 95.8079 225.898 95.1999C225.45 94.5599 224.97 93.7919 224.458 92.8959C223.946 91.9999 223.386 90.9599 222.778 89.7759C222.042 88.2399 221.482 87.5519 221.098 87.7119C220.522 87.8079 219.898 88.8319 219.226 90.7839C218.554 92.7359 218.218 94.5599 218.218 96.2559C218.218 98.3039 218.794 99.3279 219.946 99.3279ZM249.859 98.4159C249.059 98.4159 248.435 98.0479 247.987 97.3119C247.539 96.5439 247.315 95.8079 247.315 95.1039C247.315 93.1839 248.707 90.4959 251.491 87.0399C254.307 83.5519 256.579 81.8079 258.307 81.8079C259.939 81.8079 260.755 82.6719 260.755 84.3999C260.755 84.6559 260.723 84.9279 260.659 85.2159C260.627 85.5039 260.579 85.8079 260.515 86.1279C260.579 86.2239 260.739 86.2719 260.995 86.2719C261.859 86.2719 262.883 85.9679 264.067 85.3599C264.035 85.9039 262.771 86.6879 260.275 87.7119C260.627 88.7679 259.571 90.7839 257.107 93.7599C254.579 96.8639 252.419 98.4159 250.627 98.4159H249.859ZM250.723 96.9759C252.099 96.9759 253.859 95.7119 256.003 93.1839C258.083 90.7199 259.123 88.9439 259.123 87.8559C258.611 87.5679 257.971 86.8319 257.203 85.6479C256.115 85.6479 254.547 86.9599 252.499 89.5839C250.483 92.1439 249.507 94.1119 249.571 95.4879C249.603 96.4799 249.987 96.9759 250.723 96.9759ZM262.879 98.4639C262.687 98.4639 262.415 98.3839 262.063 98.2239C261.711 98.0319 261.391 97.8239 261.103 97.5999C260.815 97.3439 260.655 97.1199 260.623 96.9279C260.591 96.6719 260.767 95.9519 261.151 94.7679C261.503 93.5519 262.079 91.9039 262.879 89.8239C263.679 87.7119 264.351 86.0799 264.895 84.9279C265.439 83.7759 265.839 83.0879 266.095 82.8639C266.223 82.7359 266.399 82.6719 266.623 82.6719C266.975 82.6719 267.311 82.8319 267.631 83.1519C267.951 83.4399 268.127 83.7919 268.159 84.2079C268.159 84.2399 267.359 86.1279 265.759 89.8719C264.191 93.4879 263.455 95.6479 263.551 96.3519C264.959 95.9039 267.311 94.3199 270.607 91.5999C272.591 89.9359 274.015 88.4319 274.879 87.0879C275.775 85.7119 276.223 84.4799 276.223 83.3919C276.223 82.7519 276.063 82.1759 275.743 81.6639C275.455 81.1199 274.911 80.6719 274.111 80.3199C273.887 80.2239 273.775 80.0799 273.775 79.8879C273.775 79.5999 273.951 79.4559 274.303 79.4559C275.231 79.4559 276.031 79.7599 276.703 80.3679C277.407 80.9759 277.759 81.8879 277.759 83.1039C277.759 84.3839 277.215 85.8399 276.127 87.4719C275.039 89.0719 273.487 90.7839 271.471 92.6079C269.711 94.1759 268.111 95.4559 266.671 96.4479C265.263 97.4399 263.999 98.1119 262.879 98.4639ZM278.181 98.9439C277.157 98.9439 276.229 98.6239 275.397 97.9839C274.565 97.3119 274.149 96.4319 274.149 95.3439C274.149 93.0719 275.541 90.4799 278.325 87.5679C281.173 84.6239 283.717 83.1519 285.957 83.1519C286.693 83.1519 287.285 83.3599 287.733 83.7759C288.213 84.1599 288.453 84.6399 288.453 85.2159C288.453 87.0079 287.029 88.7679 284.181 90.4959C281.653 92.0319 279.525 92.7999 277.797 92.7999C277.541 92.7999 277.317 92.7679 277.125 92.7039C276.645 93.5679 276.405 94.4799 276.405 95.4399C276.405 97.1039 277.189 97.9359 278.757 97.9359C280.357 97.9359 282.421 96.8639 284.949 94.7199C286.901 93.1519 288.565 91.4879 289.941 89.7279C290.229 89.3439 290.485 89.1519 290.709 89.1519C290.901 89.1519 290.997 89.2479 290.997 89.4399C290.997 89.6319 290.869 89.9039 290.613 90.2559C289.717 91.4399 288.757 92.5279 287.733 93.5199C286.709 94.5119 285.605 95.4239 284.421 96.2559C281.957 98.0479 279.877 98.9439 278.181 98.9439ZM278.469 91.7439C279.685 91.7439 281.269 91.1359 283.221 89.9199C283.861 89.4719 284.485 88.9759 285.093 88.4319C285.733 87.8559 286.245 87.2799 286.629 86.7039C287.045 86.1279 287.253 85.6159 287.253 85.1679C287.253 84.7519 286.917 84.5439 286.245 84.5439C285.285 84.5439 283.941 85.2639 282.213 86.7039C281.381 87.4079 280.581 88.1759 279.813 89.0079C279.045 89.8399 278.389 90.7199 277.845 91.6479C278.037 91.7119 278.245 91.7439 278.469 91.7439ZM291.277 98.5599C290.317 98.5599 289.501 98.3039 288.829 97.7919C288.157 97.2479 287.773 96.5919 287.677 95.8239C287.549 94.7999 287.693 93.7759 288.109 92.7519C288.557 91.6959 289.149 90.6879 289.885 89.7279C290.653 88.7679 291.469 87.8719 292.333 87.0399C295.725 83.6479 298.781 81.9519 301.501 81.9519C302.429 81.9519 303.053 82.1919 303.373 82.6719C303.501 82.8319 303.645 83.1999 303.805 83.7759C307.389 77.9519 309.885 75.0399 311.293 75.0399C311.613 75.0399 311.949 75.1199 312.301 75.2799C312.653 75.4399 312.829 75.6479 312.829 75.9039C312.829 76.0639 312.749 76.2719 312.589 76.5279C311.629 77.7119 310.669 78.8959 309.709 80.0799C308.749 81.2319 307.805 82.3999 306.877 83.5839C305.309 85.5679 304.045 87.2959 303.085 88.7679C302.125 90.2399 301.437 91.4879 301.021 92.5119C300.893 92.8319 300.765 93.2319 300.637 93.7119C300.541 94.1599 300.493 94.6239 300.493 95.1039C300.493 95.7119 300.621 96.2399 300.877 96.6879C301.133 97.1359 301.597 97.3599 302.269 97.3599C303.325 97.3599 304.621 96.8479 306.157 95.8239C307.693 94.7999 309.485 93.1199 311.533 90.7839C311.661 90.6559 311.773 90.5439 311.869 90.4479C311.997 90.3519 312.125 90.2879 312.253 90.2559C312.541 90.1919 312.685 90.2559 312.685 90.4479C312.685 90.5439 312.589 90.7199 312.397 90.9759C311.405 92.1599 310.301 93.3279 309.085 94.4799C307.869 95.6319 306.621 96.5919 305.341 97.3599C304.093 98.0959 302.925 98.4639 301.837 98.4639C300.749 98.4639 299.981 98.0959 299.533 97.3599C299.085 96.6239 298.861 95.7919 298.861 94.8639C298.861 93.9039 299.037 93.0239 299.389 92.2239L295.501 96.1119C294.637 96.9759 293.837 97.5999 293.101 97.9839C292.397 98.3679 291.789 98.5599 291.277 98.5599ZM290.845 97.5039C292.221 97.5039 294.509 95.6159 297.709 91.8399C297.869 91.6479 298.429 90.9439 299.389 89.7279C300.349 88.4799 301.709 86.6719 303.469 84.3039C303.245 83.9199 302.861 83.7279 302.317 83.7279C300.333 83.7279 297.677 85.2959 294.349 88.4319C291.213 91.3439 289.645 93.7919 289.645 95.7759C289.645 96.9279 290.045 97.5039 290.845 97.5039ZM69.3055 151.272L69.8335 158.52C69.2255 159.544 68.3775 160.472 67.2895 161.304C66.2015 162.104 64.8735 162.744 63.3055 163.224C61.7375 163.704 59.9135 163.944 57.8335 163.944C54.2495 163.912 51.1615 163.304 48.5695 162.12C45.9775 160.936 43.9775 159.24 42.5695 157.032C41.1935 154.792 40.5055 152.072 40.5055 148.872C40.5055 145.736 41.1935 143.064 42.5695 140.856C43.9455 138.616 45.9295 136.904 48.5215 135.72C51.1135 134.504 54.2175 133.896 57.8335 133.896C60.0095 133.896 62.0255 134.104 63.8815 134.52C65.7695 134.936 67.3375 135.464 68.5855 136.104L68.6335 143.736H68.2495C67.4495 140.792 66.1855 138.728 64.4575 137.544C62.7295 136.36 60.6815 135.768 58.3135 135.768C55.9775 135.768 54.0255 136.312 52.4575 137.4C50.9215 138.488 49.7535 140.008 48.9535 141.96C48.1855 143.912 47.8015 146.2 47.8015 148.824C47.8015 151.48 48.1855 153.784 48.9535 155.736C49.7535 157.688 50.9055 159.208 52.4095 160.296C53.9135 161.384 55.7215 161.96 57.8335 162.024C60.1055 162.024 61.9775 161.672 63.4495 160.968C64.9535 160.264 66.1375 159.128 67.0015 157.56C67.8975 155.992 68.5375 153.896 68.9215 151.272H69.3055ZM87.373 133.224L101.581 163.08H93.469L84.541 142.008L87.373 133.224ZM78.349 160.152C77.997 161.016 78.045 161.688 78.493 162.168C78.941 162.616 79.437 162.84 79.981 162.84H80.365V163.32H70.765V162.84C70.765 162.84 70.829 162.84 70.957 162.84C71.085 162.84 71.149 162.84 71.149 162.84C71.789 162.84 72.461 162.648 73.165 162.264C73.869 161.848 74.445 161.144 74.893 160.152H78.349ZM87.373 133.224L87.469 138.984L77.053 163.176H73.501L84.733 139.032C84.797 138.84 84.941 138.504 85.165 138.024C85.389 137.512 85.629 136.952 85.885 136.344C86.141 135.704 86.381 135.112 86.605 134.568C86.829 133.992 86.957 133.544 86.989 133.224H87.373ZM91.549 153.912V155.784H79.309V153.912H91.549ZM92.269 160.152H100.189C100.669 161.144 101.261 161.848 101.965 162.264C102.669 162.648 103.341 162.84 103.981 162.84C103.981 162.84 104.045 162.84 104.173 162.84C104.301 162.84 104.365 162.84 104.365 162.84V163.32H90.253V162.84H90.637C91.181 162.84 91.677 162.616 92.125 162.168C92.573 161.688 92.621 161.016 92.269 160.152ZM114.52 134.52H119.704C121.016 134.52 122.296 134.664 123.544 134.952C124.792 135.208 125.912 135.64 126.904 136.248C127.896 136.824 128.68 137.624 129.256 138.648C129.864 139.64 130.168 140.888 130.168 142.392C130.168 143.512 129.928 144.632 129.448 145.752C129 146.84 128.28 147.784 127.288 148.584C126.328 149.384 125.064 149.912 123.496 150.168C124.424 150.456 125.304 151.016 126.136 151.848C127 152.68 127.672 153.464 128.152 154.2C128.28 154.456 128.504 154.872 128.824 155.448C129.144 155.992 129.544 156.632 130.024 157.368C130.536 158.072 131.064 158.808 131.608 159.576C132.248 160.44 132.808 161.112 133.288 161.592C133.768 162.04 134.264 162.36 134.776 162.552C135.288 162.744 135.88 162.84 136.552 162.84V163.32H132.52C130.792 163.32 129.32 163.192 128.104 162.936C126.92 162.68 125.88 162.216 124.984 161.544C124.12 160.84 123.32 159.896 122.584 158.712C122.296 158.296 121.992 157.8 121.672 157.224C121.352 156.616 121.032 156.008 120.712 155.4C120.392 154.792 120.104 154.2 119.848 153.624C119.624 153.048 119.464 152.568 119.368 152.184C118.952 151.16 118.472 150.424 117.928 149.976C117.416 149.496 116.936 149.256 116.488 149.256V148.824C116.488 148.824 116.6 148.824 116.824 148.824C117.048 148.824 117.336 148.824 117.688 148.824C118.36 148.824 119.016 148.712 119.656 148.488C120.328 148.232 120.936 147.768 121.48 147.096C122.024 146.392 122.424 145.368 122.68 144.024C122.744 143.832 122.792 143.56 122.824 143.208C122.888 142.856 122.904 142.456 122.872 142.008C122.808 140.824 122.584 139.88 122.2 139.176C121.848 138.44 121.4 137.896 120.856 137.544C120.312 137.16 119.752 136.904 119.176 136.776C118.632 136.616 118.152 136.536 117.736 136.536C117.128 136.504 116.568 136.504 116.056 136.536C115.576 136.536 115.208 136.52 114.952 136.488C114.92 136.488 114.872 136.328 114.808 136.008C114.744 135.656 114.68 135.32 114.616 135C114.552 134.68 114.52 134.52 114.52 134.52ZM115 134.52V163.32H108.04V134.52H115ZM108.184 160.296L108.376 163.32H104.92V162.84C104.952 162.84 105.032 162.84 105.16 162.84C105.32 162.84 105.432 162.84 105.496 162.84C106.2 162.84 106.792 162.6 107.272 162.12C107.784 161.608 108.056 161 108.088 160.296H108.184ZM108.184 137.496H108.088C108.056 136.76 107.784 136.168 107.272 135.72C106.792 135.24 106.216 135 105.544 135C105.448 135 105.32 135 105.16 135C105.032 135 104.952 135 104.92 135V134.52H108.376L108.184 137.496ZM114.904 160.296H115C115 161.096 115.272 161.72 115.816 162.168C116.392 162.616 117 162.84 117.64 162.84C117.64 162.84 117.704 162.84 117.832 162.84C117.96 162.84 118.056 162.84 118.12 162.84V163.32H114.664L114.904 160.296ZM157.969 133.896C158.609 133.896 159.377 133.928 160.273 133.992C161.201 134.056 162.113 134.136 163.009 134.232C163.905 134.296 164.689 134.392 165.361 134.52C166.065 134.616 166.545 134.712 166.801 134.808L166.177 140.664H165.745C165.745 139.192 165.233 138.024 164.209 137.16C163.185 136.296 161.713 135.864 159.793 135.864C158.257 135.864 157.009 136.2 156.049 136.872C155.121 137.544 154.625 138.44 154.561 139.56C154.497 140.136 154.593 140.664 154.849 141.144C155.137 141.592 155.521 141.992 156.001 142.344C156.513 142.696 157.073 143.048 157.681 143.4L165.217 148.056C166.497 148.696 167.505 149.624 168.241 150.84C168.977 152.056 169.297 153.528 169.201 155.256C169.105 157.048 168.577 158.6 167.617 159.912C166.689 161.224 165.393 162.232 163.729 162.936C162.097 163.608 160.161 163.944 157.921 163.944C156.545 163.944 155.265 163.832 154.081 163.608C152.897 163.384 151.873 163.08 151.009 162.696C150.177 162.312 149.537 161.88 149.089 161.4C148.833 160.76 148.721 159.992 148.753 159.096C148.785 158.168 148.929 157.256 149.185 156.36C149.441 155.432 149.761 154.664 150.145 154.056H150.529C150.433 155.496 150.689 156.824 151.297 158.04C151.937 159.256 152.865 160.232 154.081 160.968C155.297 161.672 156.753 162.024 158.449 162.024C160.305 162.024 161.697 161.592 162.625 160.728C163.553 159.864 164.017 158.856 164.017 157.704C164.017 156.84 163.729 156.072 163.153 155.4C162.609 154.696 161.697 154.008 160.417 153.336L153.601 149.016C152.001 148.184 150.833 147.08 150.097 145.704C149.393 144.328 149.137 142.824 149.329 141.192C149.489 139.656 149.937 138.344 150.673 137.256C151.441 136.168 152.449 135.336 153.697 134.76C154.945 134.184 156.369 133.896 157.969 133.896ZM166.801 134.328L166.753 135.192H161.617V134.328H166.801ZM202.215 134.52V163.32H195.351V134.52H202.215ZM182.679 134.52V163.32H175.767V134.52H182.679ZM195.735 148.008V149.928H182.247V148.008H195.735ZM175.911 160.296V163.32H172.599V162.84C172.599 162.84 172.679 162.84 172.839 162.84C173.031 162.84 173.143 162.84 173.175 162.84C173.879 162.84 174.487 162.6 174.999 162.12C175.511 161.608 175.767 161 175.767 160.296H175.911ZM182.583 160.296H182.679C182.711 161 182.983 161.608 183.495 162.12C184.007 162.6 184.615 162.84 185.319 162.84C185.319 162.84 185.399 162.84 185.559 162.84C185.751 162.84 185.847 162.84 185.847 162.84V163.32H182.583V160.296ZM182.583 137.544V134.52H185.847V135C185.847 135 185.751 135 185.559 135C185.399 135 185.319 135 185.319 135C184.615 135 184.007 135.24 183.495 135.72C182.983 136.2 182.711 136.808 182.679 137.544H182.583ZM175.911 137.544H175.767C175.767 136.808 175.511 136.2 174.999 135.72C174.487 135.24 173.879 135 173.175 135C173.143 135 173.031 135 172.839 135C172.679 135 172.599 135 172.599 135V134.52H175.911V137.544ZM195.447 160.296V163.32H192.183V162.84C192.183 162.84 192.263 162.84 192.423 162.84C192.615 162.84 192.711 162.84 192.711 162.84C193.415 162.84 194.023 162.6 194.535 162.12C195.047 161.608 195.303 161 195.303 160.296H195.447ZM202.071 160.296H202.215C202.247 161 202.503 161.608 202.983 162.12C203.495 162.6 204.119 162.84 204.855 162.84C204.855 162.84 204.935 162.84 205.095 162.84C205.287 162.84 205.383 162.84 205.383 162.84V163.32H202.071V160.296ZM202.119 137.544V134.52H205.431V135C205.431 135 205.335 135 205.143 135C204.951 135 204.855 135 204.855 135C204.119 135 203.495 135.24 202.983 135.72C202.503 136.2 202.263 136.808 202.263 137.544H202.119ZM195.447 137.544H195.303C195.303 136.808 195.047 136.2 194.535 135.72C194.023 135.24 193.415 135 192.711 135C192.711 135 192.615 135 192.423 135C192.263 135 192.183 135 192.183 135V134.52H195.447V137.544ZM225.216 133.896C227.776 133.896 230.096 134.248 232.176 134.952C234.256 135.624 236.048 136.616 237.552 137.928C239.056 139.24 240.208 140.824 241.008 142.68C241.84 144.536 242.256 146.632 242.256 148.968C242.256 151.272 241.84 153.352 241.008 155.208C240.208 157.032 239.056 158.6 237.552 159.912C236.048 161.224 234.256 162.232 232.176 162.936C230.096 163.608 227.776 163.944 225.216 163.944C222.688 163.944 220.384 163.608 218.304 162.936C216.224 162.232 214.432 161.224 212.928 159.912C211.424 158.6 210.272 157.032 209.472 155.208C208.672 153.352 208.272 151.272 208.272 148.968C208.272 146.632 208.672 144.536 209.472 142.68C210.272 140.824 211.424 139.24 212.928 137.928C214.432 136.616 216.224 135.624 218.304 134.952C220.384 134.248 222.688 133.896 225.216 133.896ZM225.216 162.072C227.168 162.072 228.864 161.544 230.304 160.488C231.776 159.4 232.896 157.88 233.664 155.928C234.464 153.976 234.864 151.656 234.864 148.968C234.864 146.248 234.464 143.912 233.664 141.96C232.896 139.976 231.776 138.456 230.304 137.4C228.864 136.312 227.168 135.768 225.216 135.768C223.296 135.768 221.616 136.312 220.176 137.4C218.736 138.456 217.616 139.976 216.816 141.96C216.016 143.912 215.616 146.248 215.616 148.968C215.616 151.656 216.016 153.976 216.816 155.928C217.616 157.88 218.736 159.4 220.176 160.488C221.616 161.544 223.296 162.072 225.216 162.072ZM244.84 134.808H252.28L258.76 151.896L256.072 163.848L244.84 134.808ZM266.296 133.848L267.16 138.264L257.608 159C257.608 159 257.512 159.24 257.32 159.72C257.16 160.2 256.984 160.808 256.792 161.544C256.6 162.28 256.504 163.048 256.504 163.848H256.072L254.776 158.52L265.912 133.848H266.296ZM266.296 133.848L275.704 152.76L273.448 163.848L263.128 143.064L266.296 133.848ZM282.52 134.808L274.648 159C274.648 159 274.568 159.256 274.408 159.768C274.28 160.28 274.152 160.92 274.024 161.688C273.896 162.424 273.848 163.144 273.88 163.848H273.448L272.152 159.528L279.448 134.808H282.52ZM278.584 137.64C278.84 136.712 278.776 136.04 278.392 135.624C278.04 135.208 277.592 135 277.048 135H276.664V134.52H285.688V135C285.688 135 285.624 135 285.496 135C285.4 135 285.352 135 285.352 135C284.616 135 283.88 135.224 283.144 135.672C282.408 136.088 281.896 136.744 281.608 137.64H278.584ZM253.384 137.64H245.944C245.592 136.744 245.08 136.088 244.408 135.672C243.736 135.224 243 135 242.2 135C242.2 135 242.136 135 242.008 135C241.88 135 241.816 135 241.816 135V134.52H255.304V135H254.92C254.408 135 253.944 135.208 253.528 135.624C253.112 136.04 253.064 136.712 253.384 137.64ZM296.254 134.52H301.438C302.75 134.52 304.03 134.664 305.278 134.952C306.526 135.208 307.646 135.64 308.638 136.248C309.63 136.824 310.414 137.624 310.99 138.648C311.598 139.64 311.902 140.888 311.902 142.392C311.902 143.512 311.662 144.632 311.182 145.752C310.734 146.84 310.014 147.784 309.022 148.584C308.062 149.384 306.798 149.912 305.23 150.168C306.158 150.456 307.038 151.016 307.87 151.848C308.734 152.68 309.406 153.464 309.886 154.2C310.014 154.456 310.238 154.872 310.558 155.448C310.878 155.992 311.278 156.632 311.758 157.368C312.27 158.072 312.798 158.808 313.342 159.576C313.982 160.44 314.542 161.112 315.022 161.592C315.502 162.04 315.998 162.36 316.51 162.552C317.022 162.744 317.614 162.84 318.286 162.84V163.32H314.254C312.526 163.32 311.054 163.192 309.838 162.936C308.654 162.68 307.614 162.216 306.718 161.544C305.854 160.84 305.054 159.896 304.318 158.712C304.03 158.296 303.726 157.8 303.406 157.224C303.086 156.616 302.766 156.008 302.446 155.4C302.126 154.792 301.838 154.2 301.582 153.624C301.358 153.048 301.198 152.568 301.102 152.184C300.686 151.16 300.206 150.424 299.662 149.976C299.15 149.496 298.67 149.256 298.222 149.256V148.824C298.222 148.824 298.334 148.824 298.558 148.824C298.782 148.824 299.07 148.824 299.422 148.824C300.094 148.824 300.75 148.712 301.39 148.488C302.062 148.232 302.67 147.768 303.214 147.096C303.758 146.392 304.158 145.368 304.414 144.024C304.478 143.832 304.526 143.56 304.558 143.208C304.622 142.856 304.638 142.456 304.606 142.008C304.542 140.824 304.318 139.88 303.934 139.176C303.582 138.44 303.134 137.896 302.59 137.544C302.046 137.16 301.486 136.904 300.91 136.776C300.366 136.616 299.886 136.536 299.47 136.536C298.862 136.504 298.302 136.504 297.79 136.536C297.31 136.536 296.942 136.52 296.686 136.488C296.654 136.488 296.606 136.328 296.542 136.008C296.478 135.656 296.414 135.32 296.35 135C296.286 134.68 296.254 134.52 296.254 134.52ZM296.734 134.52V163.32H289.774V134.52H296.734ZM289.918 160.296L290.11 163.32H286.654V162.84C286.686 162.84 286.766 162.84 286.894 162.84C287.054 162.84 287.166 162.84 287.23 162.84C287.934 162.84 288.526 162.6 289.006 162.12C289.518 161.608 289.79 161 289.822 160.296H289.918ZM289.918 137.496H289.822C289.79 136.76 289.518 136.168 289.006 135.72C288.526 135.24 287.95 135 287.278 135C287.182 135 287.054 135 286.894 135C286.766 135 286.686 135 286.654 135V134.52H290.11L289.918 137.496ZM296.638 160.296H296.734C296.734 161.096 297.006 161.72 297.55 162.168C298.126 162.616 298.734 162.84 299.374 162.84C299.374 162.84 299.438 162.84 299.566 162.84C299.694 162.84 299.79 162.84 299.854 162.84V163.32H296.398L296.638 160.296ZM334.107 133.896C336.667 133.896 338.987 134.248 341.067 134.952C343.147 135.624 344.939 136.616 346.443 137.928C347.947 139.24 349.099 140.824 349.899 142.68C350.731 144.536 351.147 146.632 351.147 148.968C351.147 151.272 350.731 153.352 349.899 155.208C349.099 157.032 347.947 158.6 346.443 159.912C344.939 161.224 343.147 162.232 341.067 162.936C338.987 163.608 336.667 163.944 334.107 163.944C331.579 163.944 329.275 163.608 327.195 162.936C325.115 162.232 323.323 161.224 321.819 159.912C320.315 158.6 319.163 157.032 318.363 155.208C317.563 153.352 317.163 151.272 317.163 148.968C317.163 146.632 317.563 144.536 318.363 142.68C319.163 140.824 320.315 139.24 321.819 137.928C323.323 136.616 325.115 135.624 327.195 134.952C329.275 134.248 331.579 133.896 334.107 133.896ZM334.107 162.072C336.059 162.072 337.755 161.544 339.195 160.488C340.667 159.4 341.787 157.88 342.555 155.928C343.355 153.976 343.755 151.656 343.755 148.968C343.755 146.248 343.355 143.912 342.555 141.96C341.787 139.976 340.667 138.456 339.195 137.4C337.755 136.312 336.059 135.768 334.107 135.768C332.187 135.768 330.507 136.312 329.067 137.4C327.627 138.456 326.507 139.976 325.707 141.96C324.907 143.912 324.507 146.248 324.507 148.968C324.507 151.656 324.907 153.976 325.707 155.928C326.507 157.88 327.627 159.4 329.067 160.488C330.507 161.544 332.187 162.072 334.107 162.072ZM371.982 133.896C374.542 133.896 376.862 134.248 378.942 134.952C381.022 135.624 382.814 136.616 384.318 137.928C385.822 139.24 386.974 140.824 387.774 142.68C388.606 144.536 389.022 146.632 389.022 148.968C389.022 151.272 388.606 153.352 387.774 155.208C386.974 157.032 385.822 158.6 384.318 159.912C382.814 161.224 381.022 162.232 378.942 162.936C376.862 163.608 374.542 163.944 371.982 163.944C369.454 163.944 367.15 163.608 365.07 162.936C362.99 162.232 361.198 161.224 359.694 159.912C358.19 158.6 357.038 157.032 356.238 155.208C355.438 153.352 355.038 151.272 355.038 148.968C355.038 146.632 355.438 144.536 356.238 142.68C357.038 140.824 358.19 139.24 359.694 137.928C361.198 136.616 362.99 135.624 365.07 134.952C367.15 134.248 369.454 133.896 371.982 133.896ZM371.982 162.072C373.934 162.072 375.63 161.544 377.07 160.488C378.542 159.4 379.662 157.88 380.43 155.928C381.23 153.976 381.63 151.656 381.63 148.968C381.63 146.248 381.23 143.912 380.43 141.96C379.662 139.976 378.542 138.456 377.07 137.4C375.63 136.312 373.934 135.768 371.982 135.768C370.062 135.768 368.382 136.312 366.942 137.4C365.502 138.456 364.382 139.976 363.582 141.96C362.782 143.912 362.382 146.248 362.382 148.968C362.382 151.656 362.782 153.976 363.582 155.928C364.382 157.88 365.502 159.4 366.942 160.488C368.382 161.544 370.062 162.072 371.982 162.072ZM424.229 133.896L424.613 138.84L411.701 159.336C411.701 159.336 411.557 159.608 411.269 160.152C410.981 160.664 410.693 161.288 410.405 162.024C410.149 162.76 410.005 163.496 409.973 164.232H409.541L407.669 160.296L424.229 133.896ZM394.709 160.248V163.32H390.005V162.84C390.005 162.84 390.117 162.84 390.341 162.84C390.533 162.84 390.629 162.84 390.629 162.84C391.429 162.84 392.117 162.616 392.693 162.168C393.301 161.72 393.669 161.08 393.797 160.248H394.709ZM396.773 160.92C396.741 161.272 396.853 161.688 397.109 162.168C397.365 162.616 397.813 162.84 398.453 162.84H399.125V163.32H396.245L396.533 160.92H396.773ZM397.541 133.896H397.925L399.557 138.504L396.533 163.32H393.413L397.541 133.896ZM397.925 133.896L412.133 155.16L409.541 164.232L396.773 144.888L397.925 133.896ZM424.661 133.896L428.885 163.32H421.541L419.189 145.8L424.229 133.896H424.661ZM427.541 160.248H428.453C428.613 161.08 428.981 161.72 429.557 162.168C430.165 162.616 430.837 162.84 431.573 162.84C431.573 162.84 431.685 162.84 431.909 162.84C432.133 162.84 432.245 162.84 432.245 162.84V163.32H427.541V160.248ZM421.205 160.92H421.493L421.781 163.32H418.901V162.84H419.573C420.277 162.84 420.741 162.616 420.965 162.168C421.189 161.688 421.269 161.272 421.205 160.92Z" fill="#F4F4F4"/>
<path d="M351.018 103.552C349.226 103.552 347.386 103.28 345.498 102.736C343.61 102.224 341.818 101.456 340.122 100.432C338.458 99.4079 337.018 98.1919 335.802 96.7839C333.242 99.3439 330.81 100.624 328.506 100.624C327.322 100.624 326.442 100.272 325.866 99.5679C325.29 98.8959 325.002 98.0159 325.002 96.9279C325.002 94.9119 325.77 92.5439 327.306 89.8239C328.746 87.2639 329.898 85.9199 330.762 85.7919C331.402 85.7919 332.058 86.4479 332.73 87.7599L335.754 93.6159C337.45 91.3439 339.226 88.8959 341.082 86.2719C338.458 85.0879 337.146 83.3759 337.146 81.1359C337.146 80.1759 337.37 79.2959 337.818 78.4959C338.298 77.6639 338.906 76.9919 339.642 76.4799C340.378 75.9679 341.13 75.7119 341.898 75.7119C342.954 75.7119 343.722 76.2079 344.202 77.1999C344.266 77.2959 344.266 77.3919 344.202 77.4879C344.17 77.5839 344.122 77.6159 344.058 77.5839C343.834 77.3279 343.514 77.1039 343.098 76.9119C342.682 76.7199 342.298 76.6239 341.946 76.6239C341.274 76.6239 340.65 76.8959 340.074 77.4399C339.53 77.9519 339.098 78.5599 338.778 79.2639C338.49 79.9679 338.378 80.5919 338.442 81.1359C338.442 82.7679 339.594 84.1919 341.898 85.4079C342.442 84.6079 343.034 83.7439 343.674 82.8159C344.314 81.8559 345.002 80.8319 345.738 79.7439C352.106 70.3999 357.402 65.7279 361.626 65.7279C364.602 65.7279 366.09 67.1199 366.09 69.9039C366.09 72.4319 364.858 75.4079 362.394 78.8319C361.178 80.5279 359.642 82.0479 357.786 83.3919C355.93 84.7359 353.962 85.8079 351.882 86.6079C349.834 87.3759 347.85 87.7599 345.93 87.7599C345.482 87.7599 345.034 87.7439 344.586 87.7119C344.17 87.6479 343.786 87.5519 343.434 87.4239C342.602 88.5119 341.642 89.7279 340.554 91.0719C339.466 92.4159 338.266 93.9039 336.954 95.5359C337.53 96.3359 338.346 97.1359 339.402 97.9359C340.49 98.7359 341.706 99.4399 343.05 100.048C344.394 100.688 345.722 101.2 347.034 101.584C348.346 101.968 349.53 102.16 350.586 102.16C351.802 102.16 352.922 102.016 353.946 101.728C354.97 101.472 355.802 101.04 356.442 100.432C357.082 99.8559 357.402 99.0879 357.402 98.1279C357.402 97.9999 357.402 97.8719 357.402 97.7439C357.402 97.6159 357.386 97.4879 357.354 97.3599C357.354 97.2959 357.338 97.2479 357.306 97.2159C357.306 97.1839 357.306 97.1519 357.306 97.1199C357.306 96.7999 357.402 96.6399 357.594 96.6399C357.914 96.6399 358.17 96.8959 358.362 97.4079C358.554 97.8879 358.65 98.2719 358.65 98.5599C358.65 99.5519 358.266 100.416 357.498 101.152C356.73 101.92 355.754 102.512 354.57 102.928C353.418 103.344 352.234 103.552 351.018 103.552ZM345.594 86.5119C347.226 86.5119 348.97 86.1439 350.826 85.4079C352.682 84.6399 354.426 83.6479 356.058 82.4319C357.722 81.1839 359.066 79.8399 360.09 78.3999C363.002 74.3359 364.458 71.2479 364.458 69.1359C364.458 68.2399 364.202 67.5839 363.69 67.1679C363.178 66.7519 362.554 66.5439 361.818 66.5439C360.218 66.5439 358.234 67.8879 355.866 70.5759C355.13 71.4399 354.154 72.6879 352.938 74.3199C351.754 75.9199 350.346 77.9039 348.714 80.2719C348.074 81.1999 347.37 82.1759 346.602 83.1999C345.834 84.2239 345.034 85.2799 344.202 86.3679C344.65 86.4639 345.114 86.5119 345.594 86.5119ZM328.602 99.3279C329.21 99.3279 329.882 99.1039 330.618 98.6559C331.386 98.2399 332.122 97.7119 332.826 97.0719C333.53 96.4319 334.106 95.8079 334.554 95.1999C334.106 94.5599 333.626 93.7919 333.114 92.8959C332.602 91.9999 332.042 90.9599 331.434 89.7759C330.698 88.2399 330.138 87.5519 329.754 87.7119C329.178 87.8079 328.554 88.8319 327.882 90.7839C327.21 92.7359 326.874 94.5599 326.874 96.2559C326.874 98.3039 327.45 99.3279 328.602 99.3279ZM358.708 98.8479C357.268 98.8479 356.548 97.9359 356.548 96.1119C356.548 95.4079 356.756 94.5759 357.172 93.6159C357.62 92.6239 358.244 91.5839 359.044 90.4959C359.044 90.4959 358.756 90.7679 358.18 91.3119C357.604 91.8559 356.948 92.5439 356.212 93.3759C356.084 93.5039 355.924 93.5679 355.732 93.5679C355.604 93.5679 355.54 93.4879 355.54 93.3279C355.54 93.1679 355.684 92.8959 355.972 92.5119L362.596 84.7359C363.428 83.7759 364.34 83.2959 365.332 83.2959C366.068 83.2959 366.436 83.5839 366.436 84.1599C366.436 84.3839 366.34 84.5919 366.148 84.7839C365.54 85.3599 364.788 86.1759 363.892 87.2319C363.028 88.2879 362.18 89.4239 361.348 90.6399C360.516 91.8559 359.812 93.0239 359.236 94.1439C358.692 95.2319 358.42 96.1119 358.42 96.7839C358.42 97.3599 358.612 97.6479 358.996 97.6479C359.22 97.6479 359.572 97.5679 360.052 97.4079C360.532 97.2159 361.172 96.8479 361.972 96.3039C362.772 95.7279 363.732 94.8479 364.852 93.6639C365.044 93.4719 365.556 92.8959 366.388 91.9359C367.22 90.9759 368.34 89.5999 369.748 87.8079C372.244 84.7039 373.876 83.1519 374.644 83.1519C375.7 83.1519 376.276 83.5839 376.372 84.4479C376.436 84.7359 375.764 85.6799 374.356 87.2799C372.532 89.4879 371.284 91.0719 370.612 92.0319C369.364 93.8559 368.74 95.2799 368.74 96.3039C368.74 97.0079 368.98 97.3599 369.46 97.3599C369.94 97.3599 370.548 97.1359 371.284 96.6879C372.052 96.2079 372.852 95.6159 373.684 94.9119C374.516 94.1759 375.316 93.4239 376.084 92.6559C376.884 91.8559 377.572 91.1199 378.148 90.4479C378.34 90.2239 378.532 90.1119 378.724 90.1119C378.916 90.1119 379.012 90.2079 379.012 90.3999C379.012 90.4639 378.996 90.5599 378.964 90.6879C378.932 90.8159 378.836 90.9599 378.676 91.1199C378.164 91.6959 377.508 92.4159 376.708 93.2799C375.908 94.1119 375.044 94.9439 374.116 95.7759C373.188 96.6079 372.292 97.2959 371.428 97.8399C370.564 98.3839 369.828 98.6559 369.22 98.6559C368.484 98.6559 367.844 98.4639 367.3 98.0799C366.756 97.6639 366.484 97.1039 366.484 96.3999C366.484 95.6959 366.596 94.9919 366.82 94.2879C367.044 93.5519 367.22 92.9279 367.348 92.4159C365.844 94.1759 364.516 95.5199 363.364 96.4479C362.244 97.3759 361.3 97.9999 360.532 98.3199C359.764 98.6719 359.156 98.8479 358.708 98.8479ZM375.978 103.216C375.594 103.216 375.402 103.04 375.402 102.688C375.402 102.592 375.434 102.512 375.498 102.448C378.474 97.7439 381.69 93.6159 385.146 90.0639C385.178 89.2959 385.21 88.3039 385.242 87.0879C385.274 85.8399 385.322 84.3679 385.386 82.6719C385.034 82.7359 384.442 83.2799 383.61 84.3039C382.778 85.2959 381.802 86.6079 380.682 88.2399C379.594 89.8399 378.57 91.1679 377.61 92.2239C376.682 93.2799 376.154 93.8559 376.026 93.9519C375.802 94.1439 375.594 94.2399 375.402 94.2399C375.242 94.2399 375.162 94.1599 375.162 93.9999C375.162 93.8719 375.226 93.7439 375.354 93.6159C375.45 93.4559 375.706 93.1519 376.122 92.7039C376.698 92.0639 377.194 91.5039 377.61 91.0239C378.026 90.5119 378.426 89.9679 378.81 89.3919C379.226 88.8159 379.706 88.1119 380.25 87.2799C380.602 86.7679 381.034 86.1279 381.546 85.3599C382.09 84.5599 382.634 83.7919 383.178 83.0559C383.754 82.3199 384.25 81.7759 384.666 81.4239C384.986 81.1359 385.322 80.9279 385.674 80.7999C386.058 80.6719 386.41 80.6079 386.73 80.6079C387.114 80.6079 387.466 80.6879 387.786 80.8479C388.138 81.0079 388.266 81.3599 388.17 81.9039C388.17 81.9359 388.09 82.4479 387.93 83.4399C387.802 84.3999 387.674 85.8239 387.546 87.7119C388.154 87.1359 389.354 86.0639 391.146 84.4959C392.97 82.8959 395.306 80.8799 398.154 78.4479C398.218 78.3839 398.298 78.3519 398.394 78.3519C398.618 78.3519 398.858 78.4959 399.114 78.7839C399.37 79.0399 399.498 79.3119 399.498 79.5999C399.498 79.8559 399.37 80.1119 399.114 80.3679C398.122 81.1679 396.202 82.6079 393.354 84.6879C392.074 85.5839 390.922 86.4479 389.898 87.2799C388.906 88.1119 388.09 88.8319 387.45 89.4399C387.418 89.7599 387.402 90.0799 387.402 90.3999C387.402 90.7199 387.402 91.0239 387.402 91.3119C387.402 93.2959 387.594 94.7839 387.978 95.7759C388.394 96.7359 389.05 97.2159 389.946 97.2159C390.938 97.2159 392.186 96.5919 393.69 95.3439C395.226 94.0639 396.794 92.4959 398.394 90.6399C398.714 90.3199 398.954 90.1599 399.114 90.1599C399.274 90.1599 399.354 90.2559 399.354 90.4479C399.354 90.5119 399.322 90.6079 399.258 90.7359C399.226 90.8639 399.13 91.0239 398.97 91.2159C397.946 92.3999 396.826 93.5999 395.61 94.8159C394.426 96.0319 393.226 97.0559 392.01 97.8879C390.794 98.6879 389.626 99.0879 388.506 99.0879C387.546 99.0879 386.826 98.7359 386.346 98.0319C385.866 97.2959 385.546 96.3679 385.386 95.2479C385.258 94.1279 385.178 92.9599 385.146 91.7439C381.242 95.9039 378.314 99.6639 376.362 103.024C376.266 103.152 376.138 103.216 375.978 103.216ZM399.583 98.8479C398.143 98.8479 397.423 97.9359 397.423 96.1119C397.423 95.4079 397.631 94.5759 398.047 93.6159C398.495 92.6239 399.119 91.5839 399.919 90.4959C399.919 90.4959 399.631 90.7679 399.055 91.3119C398.479 91.8559 397.823 92.5439 397.087 93.3759C396.959 93.5039 396.799 93.5679 396.607 93.5679C396.479 93.5679 396.415 93.4879 396.415 93.3279C396.415 93.1679 396.559 92.8959 396.847 92.5119L403.471 84.7359C404.303 83.7759 405.215 83.2959 406.207 83.2959C406.943 83.2959 407.311 83.5839 407.311 84.1599C407.311 84.3839 407.215 84.5919 407.023 84.7839C406.415 85.3599 405.663 86.1759 404.767 87.2319C403.903 88.2879 403.055 89.4239 402.223 90.6399C401.391 91.8559 400.687 93.0239 400.111 94.1439C399.567 95.2319 399.295 96.1119 399.295 96.7839C399.295 97.3599 399.487 97.6479 399.871 97.6479C400.095 97.6479 400.447 97.5679 400.927 97.4079C401.407 97.2159 402.047 96.8479 402.847 96.3039C403.647 95.7279 404.607 94.8479 405.727 93.6639C405.919 93.4719 406.431 92.8959 407.263 91.9359C408.095 90.9759 409.215 89.5999 410.623 87.8079C413.119 84.7039 414.751 83.1519 415.519 83.1519C416.575 83.1519 417.151 83.5839 417.247 84.4479C417.311 84.7359 416.639 85.6799 415.231 87.2799C413.407 89.4879 412.159 91.0719 411.487 92.0319C410.239 93.8559 409.615 95.2799 409.615 96.3039C409.615 97.0079 409.855 97.3599 410.335 97.3599C410.815 97.3599 411.423 97.1359 412.159 96.6879C412.927 96.2079 413.727 95.6159 414.559 94.9119C415.391 94.1759 416.191 93.4239 416.959 92.6559C417.759 91.8559 418.447 91.1199 419.023 90.4479C419.215 90.2239 419.407 90.1119 419.599 90.1119C419.791 90.1119 419.887 90.2079 419.887 90.3999C419.887 90.4639 419.871 90.5599 419.839 90.6879C419.807 90.8159 419.711 90.9599 419.551 91.1199C419.039 91.6959 418.383 92.4159 417.583 93.2799C416.783 94.1119 415.919 94.9439 414.991 95.7759C414.063 96.6079 413.167 97.2959 412.303 97.8399C411.439 98.3839 410.703 98.6559 410.095 98.6559C409.359 98.6559 408.719 98.4639 408.175 98.0799C407.631 97.6639 407.359 97.1039 407.359 96.3999C407.359 95.6959 407.471 94.9919 407.695 94.2879C407.919 93.5519 408.095 92.9279 408.223 92.4159C406.719 94.1759 405.391 95.5199 404.239 96.4479C403.119 97.3759 402.175 97.9999 401.407 98.3199C400.639 98.6719 400.031 98.8479 399.583 98.8479ZM427.509 98.5599C426.133 98.5599 425.189 98.2079 424.677 97.5039C424.165 96.7679 423.909 95.7919 423.909 94.5759C423.909 93.2319 424.325 91.6319 425.157 89.7759C425.477 89.0399 425.813 88.3839 426.165 87.8079C426.517 87.1999 426.885 86.6399 427.269 86.1279C427.141 86.1599 427.029 86.1759 426.933 86.1759C426.837 86.1759 426.741 86.1759 426.645 86.1759C425.877 86.1759 425.237 85.6319 424.725 84.5439L421.173 89.1519C419.285 91.6159 418.133 92.8479 417.717 92.8479C417.557 92.8479 417.477 92.7839 417.477 92.6559C417.477 92.4959 417.557 92.2879 417.717 92.0319C417.813 91.8399 418.005 91.5839 418.293 91.2639C419.509 89.8559 420.629 88.4639 421.653 87.0879C422.677 85.7119 423.525 84.3679 424.197 83.0559C424.933 80.2719 425.861 78.8799 426.981 78.8799C427.717 78.8799 428.085 79.2159 428.085 79.8879C428.085 80.4959 427.685 81.2959 426.885 82.2879C426.117 83.2799 425.733 83.7919 425.733 83.8239C425.733 84.4959 426.229 84.8319 427.221 84.8319C427.797 84.8319 428.437 84.6239 429.141 84.2079L430.389 83.4399C430.453 83.4079 430.549 83.3919 430.677 83.3919C431.061 83.3919 431.397 83.5519 431.685 83.8719C431.973 84.1919 432.069 84.4799 431.973 84.7359L428.661 88.9119C426.613 91.5359 425.589 93.6479 425.589 95.2479C425.589 96.6879 426.293 97.4079 427.701 97.4079C428.661 97.4079 429.685 97.1199 430.773 96.5439C431.893 95.9679 432.965 95.2639 433.989 94.4319C435.045 93.5679 435.925 92.7359 436.629 91.9359L437.781 90.5919C437.845 90.5279 437.925 90.4479 438.021 90.3519C438.117 90.2559 438.197 90.2079 438.261 90.2079C438.485 90.2079 438.597 90.3199 438.597 90.5439C438.597 90.6079 438.565 90.7199 438.501 90.8799C438.437 91.0399 438.325 91.2159 438.165 91.4079L436.629 93.1359C435.893 93.9679 434.981 94.8159 433.893 95.6799C432.837 96.5119 431.733 97.1999 430.581 97.7439C429.461 98.2879 428.437 98.5599 427.509 98.5599ZM437.712 108.16C436.688 108.16 435.792 107.728 435.024 106.864C434.256 105.968 433.888 104.976 433.92 103.888C434.304 104.368 434.816 104.928 435.456 105.568C436.288 106.368 437.104 106.768 437.904 106.768C439.728 106.768 441.696 105.312 443.808 102.4C444.544 101.376 445.296 100.176 446.064 98.7999C446.864 97.4559 447.616 95.9519 448.32 94.2879L450.144 89.8719L443.088 95.3919C440.912 97.0879 439.168 97.9359 437.856 97.9359C437.152 97.9359 436.592 97.6799 436.176 97.1679C435.76 96.6559 435.552 96.1279 435.552 95.5839C435.552 94.2079 436.736 91.9519 439.104 88.8159C441.472 85.6479 443.248 84.0639 444.432 84.0639C445.424 84.0639 445.92 84.4319 445.92 85.1679C445.92 85.4559 444.496 87.1199 441.648 90.1599C438.832 93.1679 437.424 95.1999 437.424 96.2559C437.424 96.6719 437.696 96.8799 438.24 96.8799C439.264 96.8799 441.488 95.5519 444.912 92.8959C446.32 91.7759 447.568 90.7519 448.656 89.8239C449.744 88.8959 450.656 88.0639 451.392 87.3279C451.648 87.0079 451.904 86.7039 452.16 86.4159C452.416 86.0959 452.656 85.7759 452.88 85.4559C453.488 84.7519 454.096 84.3999 454.704 84.3999C455.568 84.3999 456 84.7519 456 85.4559C456 85.5839 455.328 86.6399 453.984 88.6239C453.28 89.7119 452.72 90.5599 452.304 91.1679C451.888 91.7439 451.648 92.1119 451.584 92.2719C450.592 94.1919 449.072 96.9919 447.024 100.672C443.92 105.664 440.816 108.16 437.712 108.16Z" fill="#DFB922"/>
<path d="M93.3891 86.3199H206.686V88.7199H93.3891V86.3199Z" fill="#F4F4F4"/>
</g>
<defs>
<filter id="filter0_d_4_62" x="0" y="0" width="460" height="172.232" filterUnits="userSpaceOnUse" color-interpolation-filters="sRGB">
<feFlood flood-opacity="0" result="BackgroundImageFix"/>
<feColorMatrix in="SourceAlpha" type="matrix" values="0 0 0 0 0 0 0 0 0 0 0 0 0 0 0 0 0 0 127 0" result="hardAlpha"/>
<feOffset dy="4"/>
<feGaussianBlur stdDeviation="2"/>
<feComposite in2="hardAlpha" operator="out"/>
<feColorMatrix type="matrix" values="0 0 0 0 0 0 0 0 0 0 0 0 0 0 0 0 0 0 0.25 0"/>
<feBlend mode="normal" in2="BackgroundImageFix" result="effect1_dropShadow_4_62"/>
<feBlend mode="normal" in="SourceGraphic" in2="effect1_dropShadow_4_62" result="shape"/>
</filter>
</defs>
</svg>
