<svg width="226" height="110" viewBox="0 0 226 110" fill="none" xmlns="http://www.w3.org/2000/svg">
<g filter="url(#filter0_i_4_59)">
<path d="M9.76891 15H14.0889C15.1822 15 16.2489 15.12 17.2889 15.36C18.3289 15.5733 19.2622 15.9333 20.0889 16.44C20.9156 16.92 21.5689 17.5867 22.0489 18.44C22.5556 19.2667 22.8089 20.3067 22.8089 21.56C22.8089 22.4933 22.6089 23.4267 22.2089 24.36C21.8356 25.2667 21.2356 26.0533 20.4089 26.72C19.6089 27.3867 18.5556 27.8267 17.2489 28.04C18.0222 28.28 18.7556 28.7467 19.4489 29.44C20.1689 30.1333 20.7289 30.7867 21.1289 31.4C21.2356 31.6133 21.4222 31.96 21.6889 32.44C21.9556 32.8933 22.2889 33.4267 22.6889 34.04C23.1156 34.6267 23.5556 35.24 24.0089 35.88C24.5422 36.6 25.0089 37.16 25.4089 37.56C25.8089 37.9333 26.2222 38.2 26.6489 38.36C27.0756 38.52 27.5689 38.6 28.1289 38.6V39H24.7689C23.3289 39 22.1022 38.8933 21.0889 38.68C20.1022 38.4667 19.2356 38.08 18.4889 37.52C17.7689 36.9333 17.1022 36.1467 16.4889 35.16C16.2489 34.8133 15.9956 34.4 15.7289 33.92C15.4622 33.4133 15.1956 32.9067 14.9289 32.4C14.6622 31.8933 14.4222 31.4 14.2089 30.92C14.0222 30.44 13.8889 30.04 13.8089 29.72C13.4622 28.8667 13.0622 28.2533 12.6089 27.88C12.1822 27.48 11.7822 27.28 11.4089 27.28V26.92C11.4089 26.92 11.5022 26.92 11.6889 26.92C11.8756 26.92 12.1156 26.92 12.4089 26.92C12.9689 26.92 13.5156 26.8267 14.0489 26.64C14.6089 26.4267 15.1156 26.04 15.5689 25.48C16.0222 24.8933 16.3556 24.04 16.5689 22.92C16.6222 22.76 16.6622 22.5333 16.6889 22.24C16.7422 21.9467 16.7556 21.6133 16.7289 21.24C16.6756 20.2533 16.4889 19.4667 16.1689 18.88C15.8756 18.2667 15.5022 17.8133 15.0489 17.52C14.5956 17.2 14.1289 16.9867 13.6489 16.88C13.1956 16.7467 12.7956 16.68 12.4489 16.68C11.9422 16.6533 11.4756 16.6533 11.0489 16.68C10.6489 16.68 10.3422 16.6667 10.1289 16.64C10.1022 16.64 10.0622 16.5067 10.0089 16.24C9.95557 15.9467 9.90224 15.6667 9.84891 15.4C9.79557 15.1333 9.76891 15 9.76891 15ZM10.1689 15V39H4.36891V15H10.1689ZM4.48891 36.48L4.64891 39H1.76891V38.6C1.79557 38.6 1.86224 38.6 1.96891 38.6C2.10224 38.6 2.19557 38.6 2.24891 38.6C2.83557 38.6 3.32891 38.4 3.72891 38C4.15557 37.5733 4.38224 37.0667 4.40891 36.48H4.48891ZM4.48891 17.48H4.40891C4.38224 16.8667 4.15557 16.3733 3.72891 16C3.32891 15.6 2.84891 15.4 2.28891 15.4C2.20891 15.4 2.10224 15.4 1.96891 15.4C1.86224 15.4 1.79557 15.4 1.76891 15.4V15H4.64891L4.48891 17.48ZM10.0889 36.48H10.1689C10.1689 37.1467 10.3956 37.6667 10.8489 38.04C11.3289 38.4133 11.8356 38.6 12.3689 38.6C12.3689 38.6 12.4222 38.6 12.5289 38.6C12.6356 38.6 12.7156 38.6 12.7689 38.6V39H9.88891L10.0889 36.48ZM36.377 15V39H30.617V15H36.377ZM30.737 36.48V39H27.817V38.6C27.817 38.6 27.897 38.6 28.057 38.6C28.217 38.6 28.3104 38.6 28.337 38.6C28.9504 38.6 29.4837 38.4 29.937 38C30.3904 37.5733 30.617 37.0667 30.617 36.48H30.737ZM36.297 36.48H36.377C36.4037 37.0667 36.6304 37.5733 37.057 38C37.5104 38.4 38.057 38.6 38.697 38.6C38.697 38.6 38.7637 38.6 38.897 38.6C39.057 38.6 39.1504 38.6 39.177 38.6V39H36.297V36.48ZM36.297 17.52V15H39.177L39.137 15.4C39.137 15.4 39.0704 15.4 38.937 15.4C38.8037 15.4 38.7237 15.4 38.697 15.4C38.057 15.4 37.5104 15.6 37.057 16C36.6304 16.4 36.4037 16.9067 36.377 17.52H36.297ZM30.737 17.52H30.617C30.617 16.9067 30.3904 16.4 29.937 16C29.4837 15.6 28.937 15.4 28.297 15.4C28.297 15.4 28.217 15.4 28.057 15.4C27.897 15.4 27.817 15.4 27.817 15.4V15H30.737V17.52ZM65.528 28.96L65.968 35C65.4613 35.8533 64.7546 36.6267 63.848 37.32C62.9413 37.9867 61.8346 38.52 60.528 38.92C59.2213 39.32 57.7013 39.52 55.968 39.52C52.9813 39.4933 50.408 38.9867 48.248 38C46.088 37.0133 44.4213 35.6 43.248 33.76C42.1013 31.8933 41.528 29.6267 41.528 26.96C41.528 24.3467 42.1013 22.12 43.248 20.28C44.3946 18.4133 46.048 16.9867 48.208 16C50.368 14.9867 52.9546 14.48 55.968 14.48C57.7813 14.48 59.4613 14.6533 61.008 15C62.5813 15.3467 63.888 15.7867 64.928 16.32L64.968 22.68H64.648C63.9813 20.2267 62.928 18.5067 61.488 17.52C60.048 16.5333 58.3413 16.04 56.368 16.04C54.4213 16.04 52.7946 16.4933 51.488 17.4C50.208 18.3067 49.2346 19.5733 48.568 21.2C47.928 22.8267 47.608 24.7333 47.608 26.92C47.608 29.1333 47.928 31.0533 48.568 32.68C49.2346 34.3067 50.1946 35.5733 51.448 36.48C52.7013 37.3867 54.208 37.8667 55.968 37.92C57.8613 37.92 59.4213 37.6267 60.648 37.04C61.9013 36.4533 62.888 35.5067 63.608 34.2C64.3546 32.8933 64.888 31.1467 65.208 28.96H65.528ZM93.5127 15V39H87.7927V15H93.5127ZM77.2327 15V39H71.4727V15H77.2327ZM88.1127 26.24V27.84H76.8727V26.24H88.1127ZM71.5927 36.48V39H68.8327V38.6C68.8327 38.6 68.8993 38.6 69.0327 38.6C69.1927 38.6 69.286 38.6 69.3127 38.6C69.8993 38.6 70.406 38.4 70.8327 38C71.2593 37.5733 71.4727 37.0667 71.4727 36.48H71.5927ZM77.1527 36.48H77.2327C77.2593 37.0667 77.486 37.5733 77.9127 38C78.3393 38.4 78.846 38.6 79.4327 38.6C79.4327 38.6 79.4993 38.6 79.6327 38.6C79.7927 38.6 79.8727 38.6 79.8727 38.6V39H77.1527V36.48ZM77.1527 17.52V15H79.8727V15.4C79.8727 15.4 79.7927 15.4 79.6327 15.4C79.4993 15.4 79.4327 15.4 79.4327 15.4C78.846 15.4 78.3393 15.6 77.9127 16C77.486 16.4 77.2593 16.9067 77.2327 17.52H77.1527ZM71.5927 17.52H71.4727C71.4727 16.9067 71.2593 16.4 70.8327 16C70.406 15.6 69.8993 15.4 69.3127 15.4C69.286 15.4 69.1927 15.4 69.0327 15.4C68.8993 15.4 68.8327 15.4 68.8327 15.4V15H71.5927V17.52ZM87.8727 36.48V39H85.1527V38.6C85.1527 38.6 85.2193 38.6 85.3527 38.6C85.5127 38.6 85.5927 38.6 85.5927 38.6C86.1793 38.6 86.686 38.4 87.1127 38C87.5393 37.5733 87.7527 37.0667 87.7527 36.48H87.8727ZM93.3927 36.48H93.5127C93.5393 37.0667 93.7527 37.5733 94.1527 38C94.5793 38.4 95.0993 38.6 95.7127 38.6C95.7127 38.6 95.7793 38.6 95.9127 38.6C96.0727 38.6 96.1527 38.6 96.1527 38.6V39H93.3927V36.48ZM93.4327 17.52V15H96.1927V15.4C96.1927 15.4 96.1127 15.4 95.9527 15.4C95.7927 15.4 95.7127 15.4 95.7127 15.4C95.0993 15.4 94.5793 15.6 94.1527 16C93.7527 16.4 93.5527 16.9067 93.5527 17.52H93.4327ZM87.8727 17.52H87.7527C87.7527 16.9067 87.5393 16.4 87.1127 16C86.686 15.6 86.1793 15.4 85.5927 15.4C85.5927 15.4 85.5127 15.4 85.3527 15.4C85.2193 15.4 85.1527 15.4 85.1527 15.4V15H87.8727V17.52ZM122.352 15C125.205 15 127.658 15.48 129.712 16.44C131.765 17.3733 133.338 18.7467 134.432 20.56C135.525 22.3467 136.072 24.4933 136.072 27C136.072 29.5067 135.525 31.6533 134.432 33.44C133.338 35.2267 131.765 36.6 129.712 37.56C127.658 38.52 125.205 39 122.352 39H113.472L113.392 37.4C115.418 37.4 117.045 37.4 118.272 37.4C119.525 37.4 120.432 37.4 120.992 37.4C121.578 37.4 121.872 37.4 121.872 37.4C124.378 37.4 126.352 36.48 127.792 34.64C129.232 32.8 129.952 30.2533 129.952 27C129.952 23.7467 129.232 21.2 127.792 19.36C126.352 17.4933 124.378 16.56 121.872 16.56C121.872 16.56 121.578 16.56 120.992 16.56C120.405 16.56 119.458 16.56 118.152 16.56C116.845 16.56 115.125 16.56 112.992 16.56V15H122.352ZM117.352 15V39H111.592V15H117.352ZM111.712 36.44V39H108.832V38.6C108.832 38.6 108.912 38.6 109.072 38.6C109.232 38.6 109.325 38.6 109.352 38.6C109.965 38.6 110.485 38.3867 110.912 37.96C111.365 37.5333 111.592 37.0267 111.592 36.44H111.712ZM111.672 17.52H111.592C111.565 16.9067 111.325 16.4 110.872 16C110.445 15.6 109.925 15.4 109.312 15.4C109.312 15.4 109.232 15.4 109.072 15.4C108.912 15.4 108.832 15.4 108.832 15.4V15H111.672V17.52ZM146.605 15H150.925C152.018 15 153.085 15.12 154.125 15.36C155.165 15.5733 156.098 15.9333 156.925 16.44C157.752 16.92 158.405 17.5867 158.885 18.44C159.392 19.2667 159.645 20.3067 159.645 21.56C159.645 22.4933 159.445 23.4267 159.045 24.36C158.672 25.2667 158.072 26.0533 157.245 26.72C156.445 27.3867 155.392 27.8267 154.085 28.04C154.858 28.28 155.592 28.7467 156.285 29.44C157.005 30.1333 157.565 30.7867 157.965 31.4C158.072 31.6133 158.258 31.96 158.525 32.44C158.792 32.8933 159.125 33.4267 159.525 34.04C159.952 34.6267 160.392 35.24 160.845 35.88C161.378 36.6 161.845 37.16 162.245 37.56C162.645 37.9333 163.058 38.2 163.485 38.36C163.912 38.52 164.405 38.6 164.965 38.6V39H161.605C160.165 39 158.938 38.8933 157.925 38.68C156.938 38.4667 156.072 38.08 155.325 37.52C154.605 36.9333 153.938 36.1467 153.325 35.16C153.085 34.8133 152.832 34.4 152.565 33.92C152.298 33.4133 152.032 32.9067 151.765 32.4C151.498 31.8933 151.258 31.4 151.045 30.92C150.858 30.44 150.725 30.04 150.645 29.72C150.298 28.8667 149.898 28.2533 149.445 27.88C149.018 27.48 148.618 27.28 148.245 27.28V26.92C148.245 26.92 148.338 26.92 148.525 26.92C148.712 26.92 148.952 26.92 149.245 26.92C149.805 26.92 150.352 26.8267 150.885 26.64C151.445 26.4267 151.952 26.04 152.405 25.48C152.858 24.8933 153.192 24.04 153.405 22.92C153.458 22.76 153.498 22.5333 153.525 22.24C153.578 21.9467 153.592 21.6133 153.565 21.24C153.512 20.2533 153.325 19.4667 153.005 18.88C152.712 18.2667 152.338 17.8133 151.885 17.52C151.432 17.2 150.965 16.9867 150.485 16.88C150.032 16.7467 149.632 16.68 149.285 16.68C148.778 16.6533 148.312 16.6533 147.885 16.68C147.485 16.68 147.178 16.6667 146.965 16.64C146.938 16.64 146.898 16.5067 146.845 16.24C146.792 15.9467 146.738 15.6667 146.685 15.4C146.632 15.1333 146.605 15 146.605 15ZM147.005 15V39H141.205V15H147.005ZM141.325 36.48L141.485 39H138.605V38.6C138.632 38.6 138.698 38.6 138.805 38.6C138.938 38.6 139.032 38.6 139.085 38.6C139.672 38.6 140.165 38.4 140.565 38C140.992 37.5733 141.218 37.0667 141.245 36.48H141.325ZM141.325 17.48H141.245C141.218 16.8667 140.992 16.3733 140.565 16C140.165 15.6 139.685 15.4 139.125 15.4C139.045 15.4 138.938 15.4 138.805 15.4C138.698 15.4 138.632 15.4 138.605 15.4V15H141.485L141.325 17.48ZM146.925 36.48H147.005C147.005 37.1467 147.232 37.6667 147.685 38.04C148.165 38.4133 148.672 38.6 149.205 38.6C149.205 38.6 149.258 38.6 149.365 38.6C149.472 38.6 149.552 38.6 149.605 38.6V39H146.725L146.925 36.48ZM173.213 15V39H167.453V15H173.213ZM167.573 36.48V39H164.653V38.6C164.653 38.6 164.733 38.6 164.893 38.6C165.053 38.6 165.146 38.6 165.173 38.6C165.786 38.6 166.32 38.4 166.773 38C167.226 37.5733 167.453 37.0667 167.453 36.48H167.573ZM173.133 36.48H173.213C173.24 37.0667 173.466 37.5733 173.893 38C174.346 38.4 174.893 38.6 175.533 38.6C175.533 38.6 175.6 38.6 175.733 38.6C175.893 38.6 175.986 38.6 176.013 38.6V39H173.133V36.48ZM173.133 17.52V15H176.013L175.973 15.4C175.973 15.4 175.906 15.4 175.773 15.4C175.64 15.4 175.56 15.4 175.533 15.4C174.893 15.4 174.346 15.6 173.893 16C173.466 16.4 173.24 16.9067 173.213 17.52H173.133ZM167.573 17.52H167.453C167.453 16.9067 167.226 16.4 166.773 16C166.32 15.6 165.773 15.4 165.133 15.4C165.133 15.4 165.053 15.4 164.893 15.4C164.733 15.4 164.653 15.4 164.653 15.4V15H167.573V17.52ZM190.47 39.52L178.71 15.2H185.51L192.79 32.16L190.47 39.52ZM190.47 39.52L190.31 34.84L198.99 15.12H201.91L192.67 34.64C192.617 34.7733 192.497 35.0533 192.31 35.48C192.123 35.88 191.923 36.3467 191.71 36.88C191.497 37.3867 191.297 37.88 191.11 38.36C190.95 38.84 190.857 39.2267 190.83 39.52H190.47ZM197.87 17.64C198.163 16.92 198.123 16.36 197.75 15.96C197.403 15.56 196.99 15.36 196.51 15.36H196.23V15H204.19V15.4C204.19 15.4 204.137 15.4 204.03 15.4C203.923 15.4 203.87 15.4 203.87 15.4C203.337 15.4 202.777 15.5733 202.19 15.92C201.603 16.24 201.11 16.8133 200.71 17.64H197.87ZM186.55 17.64H179.91C179.51 16.8133 179.017 16.24 178.43 15.92C177.87 15.5733 177.323 15.4 176.79 15.4C176.79 15.4 176.75 15.4 176.67 15.4C176.563 15.4 176.51 15.4 176.51 15.4V15H188.23V15.36H187.91C187.483 15.36 187.083 15.56 186.71 15.96C186.337 16.36 186.283 16.92 186.55 17.64ZM213.093 15V39H207.333V15H213.093ZM222.453 37.4L223.373 39H213.013V37.4H222.453ZM221.093 26.32V27.92H213.013V26.32H221.093ZM222.893 15V16.6H213.013V15H222.893ZM225.013 31.64L223.493 39H216.573L217.813 37.4C218.96 37.4 219.973 37.1733 220.853 36.72C221.76 36.24 222.533 35.5733 223.173 34.72C223.813 33.84 224.306 32.8133 224.653 31.64H225.013ZM221.093 27.84V31.36H220.693V31.04C220.693 30.16 220.413 29.4267 219.853 28.84C219.32 28.2533 218.586 27.9467 217.653 27.92V27.84H221.093ZM221.093 22.88V26.4H217.653V26.32C218.586 26.2933 219.32 25.9867 219.853 25.4C220.413 24.7867 220.693 24.04 220.693 23.16V22.88H221.093ZM222.893 16.52V20.76H222.493V20.4C222.493 19.2267 222.173 18.3067 221.533 17.64C220.92 16.9733 220.026 16.6267 218.853 16.6V16.52H222.893ZM222.893 14.4V15.36L218.693 15C219.466 15 220.28 14.9333 221.133 14.8C221.986 14.64 222.573 14.5067 222.893 14.4ZM207.413 36.48L207.613 39H204.653V38.6C204.653 38.6 204.733 38.6 204.893 38.6C205.053 38.6 205.146 38.6 205.173 38.6C205.76 38.6 206.253 38.4 206.653 38C207.08 37.5733 207.306 37.0667 207.333 36.48H207.413ZM207.413 17.52H207.333C207.306 16.9067 207.08 16.4 206.653 16C206.253 15.6 205.76 15.4 205.173 15.4C205.146 15.4 205.053 15.4 204.893 15.4C204.733 15.4 204.653 15.4 204.653 15.4V15H207.613L207.413 17.52Z" fill="#DFB922"/>
<path d="M61.0363 90.976C58.6469 90.976 56.1936 90.6133 53.6763 89.888C51.1589 89.2053 48.7696 88.1813 46.5083 86.816C44.2896 85.4507 42.3696 83.8293 40.7483 81.952C37.3349 85.3653 34.0923 87.072 31.0203 87.072C29.4416 87.072 28.2683 86.6027 27.5003 85.664C26.7323 84.768 26.3483 83.5947 26.3483 82.144C26.3483 79.456 27.3723 76.2987 29.4203 72.672C31.3403 69.2587 32.8763 67.4667 34.0283 67.296C34.8816 67.296 35.7563 68.1707 36.6523 69.92L40.6843 77.728C42.9456 74.6987 45.3136 71.4347 47.7883 67.936C44.2896 66.3573 42.5403 64.0747 42.5403 61.088C42.5403 59.808 42.8389 58.6347 43.4363 57.568C44.0763 56.4587 44.8869 55.5627 45.8683 54.88C46.8496 54.1973 47.8523 53.856 48.8763 53.856C50.2843 53.856 51.3083 54.5173 51.9483 55.84C52.0336 55.968 52.0336 56.096 51.9483 56.224C51.9056 56.352 51.8416 56.3947 51.7563 56.352C51.4576 56.0107 51.0309 55.712 50.4763 55.456C49.9216 55.2 49.4096 55.072 48.9403 55.072C48.0443 55.072 47.2123 55.4347 46.4443 56.16C45.7189 56.8427 45.1429 57.6533 44.7163 58.592C44.3323 59.5307 44.1829 60.3627 44.2683 61.088C44.2683 63.264 45.8043 65.1627 48.8763 66.784C49.6016 65.7173 50.3909 64.5653 51.2443 63.328C52.0976 62.048 53.0149 60.6827 53.9963 59.232C62.4869 46.7733 69.5483 40.544 75.1803 40.544C79.1483 40.544 81.1323 42.4 81.1323 46.112C81.1323 49.4827 79.4896 53.4507 76.2043 58.016C74.5829 60.2773 72.5349 62.304 70.0603 64.096C67.5856 65.888 64.9616 67.3173 62.1883 68.384C59.4576 69.408 56.8123 69.92 54.2523 69.92C53.6549 69.92 53.0576 69.8987 52.4603 69.856C51.9056 69.7707 51.3936 69.6427 50.9243 69.472C49.8149 70.9227 48.5349 72.544 47.0843 74.336C45.6336 76.128 44.0336 78.112 42.2843 80.288C43.0523 81.3547 44.1403 82.4213 45.5483 83.488C46.9989 84.5547 48.6203 85.4933 50.4123 86.304C52.2043 87.1573 53.9749 87.84 55.7243 88.352C57.4736 88.864 59.0523 89.12 60.4603 89.12C62.0816 89.12 63.5749 88.928 64.9403 88.544C66.3056 88.2027 67.4149 87.6267 68.2683 86.816C69.1216 86.048 69.5483 85.024 69.5483 83.744C69.5483 83.5733 69.5483 83.4027 69.5483 83.232C69.5483 83.0613 69.5269 82.8907 69.4843 82.72C69.4843 82.6347 69.4629 82.5707 69.4203 82.528C69.4203 82.4853 69.4203 82.4427 69.4203 82.4C69.4203 81.9733 69.5483 81.76 69.8043 81.76C70.2309 81.76 70.5723 82.1013 70.8283 82.784C71.0843 83.424 71.2123 83.936 71.2123 84.32C71.2123 85.6427 70.7003 86.7947 69.6763 87.776C68.6523 88.8 67.3509 89.5893 65.7723 90.144C64.2363 90.6987 62.6576 90.976 61.0363 90.976ZM53.8043 68.256C55.9803 68.256 58.3056 67.7653 60.7803 66.784C63.2549 65.76 65.5803 64.4373 67.7563 62.816C69.9749 61.152 71.7669 59.36 73.1323 57.44C77.0149 52.0213 78.9563 47.904 78.9563 45.088C78.9563 43.8933 78.6149 43.0187 77.9323 42.464C77.2496 41.9093 76.4176 41.632 75.4363 41.632C73.3029 41.632 70.6576 43.424 67.5003 47.008C66.5189 48.16 65.2176 49.824 63.5963 52C62.0176 54.1333 60.1403 56.7787 57.9643 59.936C57.1109 61.1733 56.1723 62.4747 55.1483 63.84C54.1243 65.2053 53.0576 66.6133 51.9483 68.064C52.5456 68.192 53.1643 68.256 53.8043 68.256ZM31.1483 85.344C31.9589 85.344 32.8549 85.0453 33.8363 84.448C34.8603 83.8933 35.8416 83.1893 36.7803 82.336C37.7189 81.4827 38.4869 80.6507 39.0843 79.84C38.4869 78.9867 37.8469 77.9627 37.1643 76.768C36.4816 75.5733 35.7349 74.1867 34.9243 72.608C33.9429 70.56 33.1963 69.6427 32.6843 69.856C31.9163 69.984 31.0843 71.3493 30.1883 73.952C29.2923 76.5547 28.8443 78.9867 28.8443 81.248C28.8443 83.9787 29.6123 85.344 31.1483 85.344ZM71.2893 84.704C69.3693 84.704 68.4093 83.488 68.4093 81.056C68.4093 80.1173 68.6866 79.008 69.2413 77.728C69.8386 76.4053 70.6706 75.0187 71.7373 73.568C71.7373 73.568 71.3533 73.9307 70.5853 74.656C69.8173 75.3813 68.9426 76.2987 67.9612 77.408C67.7906 77.5787 67.5772 77.664 67.3212 77.664C67.1506 77.664 67.0652 77.5573 67.0652 77.344C67.0652 77.1307 67.2572 76.768 67.6412 76.256L76.4733 65.888C77.5826 64.608 78.7986 63.968 80.1213 63.968C81.1026 63.968 81.5933 64.352 81.5933 65.12C81.5933 65.4187 81.4653 65.696 81.2093 65.952C80.3986 66.72 79.3959 67.808 78.2013 69.216C77.0493 70.624 75.9186 72.1387 74.8093 73.76C73.6999 75.3813 72.7613 76.9387 71.9933 78.432C71.2679 79.8827 70.9053 81.056 70.9053 81.952C70.9053 82.72 71.1613 83.104 71.6733 83.104C71.9719 83.104 72.4413 82.9973 73.0813 82.784C73.7213 82.528 74.5746 82.0373 75.6413 81.312C76.7079 80.544 77.9879 79.3707 79.4813 77.792C79.7373 77.536 80.4199 76.768 81.5293 75.488C82.6386 74.208 84.1319 72.3733 86.0093 69.984C89.3373 65.8453 91.5133 63.776 92.5373 63.776C93.9453 63.776 94.7133 64.352 94.8413 65.504C94.9266 65.888 94.0306 67.1467 92.1533 69.28C89.7213 72.224 88.0573 74.336 87.1613 75.616C85.4973 78.048 84.6653 79.9467 84.6653 81.312C84.6653 82.2507 84.9853 82.72 85.6253 82.72C86.2653 82.72 87.0759 82.4213 88.0573 81.824C89.0813 81.184 90.1479 80.3947 91.2573 79.456C92.3666 78.4747 93.4333 77.472 94.4573 76.448C95.5239 75.3813 96.4413 74.4 97.2093 73.504C97.4653 73.2053 97.7213 73.056 97.9773 73.056C98.2333 73.056 98.3613 73.184 98.3613 73.44C98.3613 73.5253 98.3399 73.6533 98.2973 73.824C98.2546 73.9947 98.1266 74.1867 97.9133 74.4C97.2306 75.168 96.3559 76.128 95.2893 77.28C94.2226 78.3893 93.0706 79.4987 91.8333 80.608C90.5959 81.7173 89.4013 82.6347 88.2493 83.36C87.0973 84.0853 86.1159 84.448 85.3053 84.448C84.3239 84.448 83.4706 84.192 82.7453 83.68C82.0199 83.1253 81.6573 82.3787 81.6573 81.44C81.6573 80.5013 81.8066 79.5627 82.1053 78.624C82.4039 77.6427 82.6386 76.8107 82.8093 76.128C80.8039 78.4747 79.0333 80.2667 77.4973 81.504C76.0039 82.7413 74.7453 83.5733 73.7213 84C72.6973 84.4693 71.8866 84.704 71.2893 84.704ZM94.3167 90.528C93.8047 90.528 93.5487 90.2933 93.5487 89.824C93.5487 89.696 93.5914 89.5893 93.6767 89.504C97.6448 83.232 101.933 77.728 106.541 72.992C106.583 71.968 106.626 70.6453 106.669 69.024C106.711 67.36 106.775 65.3973 106.861 63.136C106.391 63.2213 105.602 63.9467 104.493 65.312C103.383 66.6347 102.082 68.384 100.589 70.56C99.1381 72.6933 97.7728 74.464 96.4928 75.872C95.2554 77.28 94.5514 78.048 94.3807 78.176C94.0821 78.432 93.8047 78.56 93.5487 78.56C93.3354 78.56 93.2287 78.4533 93.2287 78.24C93.2287 78.0693 93.3141 77.8987 93.4847 77.728C93.6127 77.5147 93.9541 77.1093 94.5087 76.512C95.2767 75.6587 95.9381 74.912 96.4928 74.272C97.0474 73.5893 97.5808 72.864 98.0928 72.096C98.6474 71.328 99.2874 70.3893 100.013 69.28C100.482 68.5973 101.058 67.744 101.741 66.72C102.466 65.6533 103.191 64.6293 103.917 63.648C104.685 62.6667 105.346 61.9413 105.901 61.472C106.327 61.088 106.775 60.8107 107.245 60.64C107.757 60.4693 108.226 60.384 108.653 60.384C109.165 60.384 109.634 60.4907 110.061 60.704C110.53 60.9173 110.701 61.3867 110.573 62.112C110.573 62.1547 110.466 62.8373 110.253 64.16C110.082 65.44 109.911 67.3387 109.741 69.856C110.551 69.088 112.151 67.6587 114.541 65.568C116.973 63.4347 120.087 60.7467 123.885 57.504C123.97 57.4187 124.077 57.376 124.205 57.376C124.503 57.376 124.823 57.568 125.165 57.952C125.506 58.2933 125.677 58.656 125.677 59.04C125.677 59.3813 125.506 59.7227 125.165 60.064C123.842 61.1307 121.282 63.0507 117.485 65.824C115.778 67.0187 114.242 68.1707 112.877 69.28C111.554 70.3893 110.466 71.3493 109.613 72.16C109.57 72.5867 109.549 73.0133 109.549 73.44C109.549 73.8667 109.549 74.272 109.549 74.656C109.549 77.3013 109.805 79.2853 110.317 80.608C110.871 81.888 111.746 82.528 112.941 82.528C114.263 82.528 115.927 81.696 117.933 80.032C119.981 78.3253 122.071 76.2347 124.205 73.76C124.631 73.3333 124.951 73.12 125.165 73.12C125.378 73.12 125.485 73.248 125.485 73.504C125.485 73.5893 125.442 73.7173 125.357 73.888C125.314 74.0587 125.186 74.272 124.973 74.528C123.607 76.1067 122.114 77.7067 120.493 79.328C118.914 80.9493 117.314 82.3147 115.693 83.424C114.071 84.4907 112.514 85.024 111.021 85.024C109.741 85.024 108.781 84.5547 108.141 83.616C107.501 82.6347 107.074 81.3973 106.861 79.904C106.69 78.4107 106.583 76.8533 106.541 75.232C101.335 80.7787 97.4314 85.792 94.8287 90.272C94.7007 90.4427 94.5301 90.528 94.3167 90.528ZM125.789 84.704C123.869 84.704 122.909 83.488 122.909 81.056C122.909 80.1173 123.187 79.008 123.741 77.728C124.339 76.4053 125.171 75.0187 126.237 73.568C126.237 73.568 125.853 73.9307 125.085 74.656C124.317 75.3813 123.443 76.2987 122.461 77.408C122.291 77.5787 122.077 77.664 121.821 77.664C121.651 77.664 121.565 77.5573 121.565 77.344C121.565 77.1307 121.757 76.768 122.141 76.256L130.973 65.888C132.083 64.608 133.299 63.968 134.621 63.968C135.603 63.968 136.093 64.352 136.093 65.12C136.093 65.4187 135.965 65.696 135.709 65.952C134.899 66.72 133.896 67.808 132.701 69.216C131.549 70.624 130.419 72.1387 129.309 73.76C128.2 75.3813 127.261 76.9387 126.493 78.432C125.768 79.8827 125.405 81.056 125.405 81.952C125.405 82.72 125.661 83.104 126.173 83.104C126.472 83.104 126.941 82.9973 127.581 82.784C128.221 82.528 129.075 82.0373 130.141 81.312C131.208 80.544 132.488 79.3707 133.981 77.792C134.237 77.536 134.92 76.768 136.029 75.488C137.139 74.208 138.632 72.3733 140.509 69.984C143.837 65.8453 146.013 63.776 147.037 63.776C148.445 63.776 149.213 64.352 149.341 65.504C149.427 65.888 148.531 67.1467 146.653 69.28C144.221 72.224 142.557 74.336 141.661 75.616C139.997 78.048 139.165 79.9467 139.165 81.312C139.165 82.2507 139.485 82.72 140.125 82.72C140.765 82.72 141.576 82.4213 142.557 81.824C143.581 81.184 144.648 80.3947 145.757 79.456C146.867 78.4747 147.933 77.472 148.957 76.448C150.024 75.3813 150.941 74.4 151.709 73.504C151.965 73.2053 152.221 73.056 152.477 73.056C152.733 73.056 152.861 73.184 152.861 73.44C152.861 73.5253 152.84 73.6533 152.797 73.824C152.755 73.9947 152.627 74.1867 152.413 74.4C151.731 75.168 150.856 76.128 149.789 77.28C148.723 78.3893 147.571 79.4987 146.333 80.608C145.096 81.7173 143.901 82.6347 142.749 83.36C141.597 84.0853 140.616 84.448 139.805 84.448C138.824 84.448 137.971 84.192 137.245 83.68C136.52 83.1253 136.157 82.3787 136.157 81.44C136.157 80.5013 136.307 79.5627 136.605 78.624C136.904 77.6427 137.139 76.8107 137.309 76.128C135.304 78.4747 133.533 80.2667 131.997 81.504C130.504 82.7413 129.245 83.5733 128.221 84C127.197 84.4693 126.387 84.704 125.789 84.704ZM163.025 84.32C161.19 84.32 159.931 83.8507 159.249 82.912C158.566 81.9307 158.225 80.6293 158.225 79.008C158.225 77.216 158.779 75.0827 159.889 72.608C160.315 71.6267 160.763 70.752 161.233 69.984C161.702 69.1733 162.193 68.4267 162.705 67.744C162.534 67.7867 162.385 67.808 162.257 67.808C162.129 67.808 162.001 67.808 161.873 67.808C160.849 67.808 159.995 67.0827 159.313 65.632L154.577 71.776C152.059 75.0613 150.523 76.704 149.969 76.704C149.755 76.704 149.649 76.6187 149.649 76.448C149.649 76.2347 149.755 75.9573 149.969 75.616C150.097 75.36 150.353 75.0187 150.737 74.592C152.358 72.7147 153.851 70.8587 155.217 69.024C156.582 67.1893 157.713 65.3973 158.609 63.648C159.59 59.936 160.827 58.08 162.321 58.08C163.302 58.08 163.793 58.528 163.793 59.424C163.793 60.2347 163.259 61.3013 162.193 62.624C161.169 63.9467 160.657 64.6293 160.657 64.672C160.657 65.568 161.318 66.016 162.641 66.016C163.409 66.016 164.262 65.7387 165.201 65.184L166.865 64.16C166.95 64.1173 167.078 64.096 167.249 64.096C167.761 64.096 168.209 64.3093 168.593 64.736C168.977 65.1627 169.105 65.5467 168.977 65.888L164.561 71.456C161.83 74.9547 160.465 77.7707 160.465 79.904C160.465 81.824 161.403 82.784 163.281 82.784C164.561 82.784 165.926 82.4 167.377 81.632C168.87 80.864 170.299 79.9253 171.665 78.816C173.073 77.664 174.246 76.5547 175.185 75.488L176.721 73.696C176.806 73.6107 176.913 73.504 177.041 73.376C177.169 73.248 177.275 73.184 177.361 73.184C177.659 73.184 177.809 73.3333 177.809 73.632C177.809 73.7173 177.766 73.8667 177.681 74.08C177.595 74.2933 177.446 74.528 177.233 74.784L175.185 77.088C174.203 78.1973 172.987 79.328 171.537 80.48C170.129 81.5893 168.657 82.5067 167.121 83.232C165.627 83.9573 164.262 84.32 163.025 84.32ZM176.628 97.12C175.263 97.12 174.068 96.544 173.044 95.392C172.02 94.1973 171.53 92.8747 171.572 91.424C172.084 92.064 172.767 92.8107 173.62 93.664C174.73 94.7307 175.818 95.264 176.884 95.264C179.316 95.264 181.94 93.3227 184.756 89.44C185.738 88.0747 186.74 86.4747 187.764 84.64C188.831 82.848 189.834 80.8427 190.772 78.624L193.204 72.736L183.796 80.096C180.895 82.3573 178.57 83.488 176.82 83.488C175.882 83.488 175.135 83.1467 174.58 82.464C174.026 81.7813 173.748 81.0773 173.748 80.352C173.748 78.5173 175.327 75.5093 178.484 71.328C181.642 67.104 184.01 64.992 185.588 64.992C186.911 64.992 187.572 65.4827 187.572 66.464C187.572 66.848 185.674 69.0667 181.876 73.12C178.122 77.1307 176.244 79.84 176.244 81.248C176.244 81.8027 176.607 82.08 177.332 82.08C178.698 82.08 181.663 80.3093 186.228 76.768C188.106 75.2747 189.77 73.9093 191.22 72.672C192.671 71.4347 193.887 70.3253 194.868 69.344C195.21 68.9173 195.551 68.512 195.892 68.128C196.234 67.7013 196.554 67.2747 196.852 66.848C197.663 65.9093 198.474 65.44 199.284 65.44C200.436 65.44 201.012 65.9093 201.012 66.848C201.012 67.0187 200.116 68.4267 198.324 71.072C197.386 72.5227 196.639 73.6533 196.084 74.464C195.53 75.232 195.21 75.7227 195.124 75.936C193.802 78.496 191.775 82.2293 189.044 87.136C184.906 93.792 180.767 97.12 176.628 97.12Z" fill="#DFB922"/>
</g>
<defs>
<filter id="filter0_i_4_59" x="1.76892" y="14.4" width="223.244" height="86.72" filterUnits="userSpaceOnUse" color-interpolation-filters="sRGB">
<feFlood flood-opacity="0" result="BackgroundImageFix"/>
<feBlend mode="normal" in="SourceGraphic" in2="BackgroundImageFix" result="shape"/>
<feColorMatrix in="SourceAlpha" type="matrix" values="0 0 0 0 0 0 0 0 0 0 0 0 0 0 0 0 0 0 127 0" result="hardAlpha"/>
<feOffset dy="4"/>
<feGaussianBlur stdDeviation="2"/>
<feComposite in2="hardAlpha" operator="arithmetic" k2="-1" k3="1"/>
<feColorMatrix type="matrix" values="0 0 0 0 0 0 0 0 0 0 0 0 0 0 0 0 0 0 0.25 0"/>
<feBlend mode="normal" in2="shape" result="effect1_innerShadow_4_59"/>
</filter>
</defs>
</svg>
